<svg width="16" height="16" viewBox="0 0 16 16" fill="none" xmlns="http://www.w3.org/2000/svg">
<path d="M6.41259 2.21252H2.90009C2.20009 2.21252 1.62509 2.78752 1.62509 3.50002C1.60009 4.18752 2.15009 4.76252 2.83759 4.78752H6.45009L6.41259 2.21252Z" fill="#073042"/>
<path d="M14.375 13.6625H2.9C2.1875 13.6625 1.625 13.0875 1.625 12.375V3.48755C1.625 4.20005 2.2 4.77505 2.9 4.78755H12.5125C12.5125 4.78755 14.3875 4.62505 14.3875 6.03755V13.6625H14.375Z" fill="#4285F4"/>
<path d="M9.0251 9.11246C9.5376 8.72496 9.6376 7.99996 9.2501 7.49996C9.0376 7.22496 8.7126 7.04996 8.3626 7.03746H8.4001C8.4626 7.02496 8.5376 7.02496 8.6001 7.03746V6.32496C8.6001 6.23746 8.5626 6.16246 8.4876 6.12496C8.3751 6.06246 8.2376 6.09996 8.1751 6.21246C8.1501 6.24996 8.1376 6.28746 8.1501 6.33746V7.06246C7.5251 7.16246 7.0876 7.74996 7.1876 8.38746V8.39996C7.2376 8.69996 7.4001 8.97496 7.6501 9.14996L5.5376 13.675H6.9126L7.8876 11.6C8.0001 11.35 8.3001 11.2375 8.5626 11.3625C8.6626 11.4125 8.7501 11.5 8.8001 11.6L9.8126 13.675H11.2126L9.0251 9.11246ZM8.3126 8.91246C7.9126 8.91246 7.6001 8.58746 7.6001 8.18746C7.6001 7.78746 7.9251 7.47496 8.3251 7.48746C8.5126 7.48746 8.6751 7.56246 8.8126 7.68746C9.1001 7.96246 9.1001 8.41246 8.8251 8.69996C8.7001 8.82496 8.5126 8.91246 8.3126 8.91246Z" fill="#3870B2"/>
<path d="M5.6499 2.83752H10.5749V3.73752H5.6499V2.83752Z" fill="white"/>
<path d="M7.93753 7.47501C8.32503 7.47501 8.65003 7.80001 8.63753 8.20001C8.63753 8.58751 8.31253 8.91251 7.91253 8.90001C7.52503 8.90001 7.21253 8.57501 7.21253 8.18751C7.21253 8.00001 7.28753 7.82501 7.42503 7.68751C7.56253 7.55001 7.75003 7.47501 7.93753 7.47501ZM8.21253 7.06251V6.31251C8.21253 6.22501 8.17503 6.15001 8.10003 6.11251C7.98753 6.05001 7.85003 6.08751 7.78753 6.20001C7.76253 6.23751 7.75003 6.27501 7.76253 6.32501V7.05001C7.13753 7.15001 6.70003 7.73751 6.80003 8.37501V8.38751C6.85003 8.68751 7.01253 8.96251 7.26253 9.13751L4.60003 14.85C4.50003 15.05 4.51253 15.3 4.65003 15.4875C4.85003 15.775 5.23753 15.85 5.52503 15.65C5.62503 15.5875 5.70003 15.4875 5.75003 15.3875L7.52503 11.5875C7.63753 11.3375 7.93753 11.225 8.20003 11.35C8.30003 11.4 8.38753 11.4875 8.43753 11.5875L10.25 15.35C10.4 15.6625 10.775 15.7875 11.0875 15.6375C11.4 15.4875 11.525 15.1125 11.375 14.8L8.63753 9.11251C9.13753 8.71251 9.22503 7.97501 8.82503 7.47501C8.67503 7.27501 8.46253 7.13751 8.21253 7.06251Z" fill="#073042"/>
<path d="M9.85005 3.6375C9.66255 3.6375 9.51255 3.5 9.51255 3.3125C9.51255 3.225 9.55005 3.125 9.61255 3.0625C9.75005 2.9375 9.95005 2.9375 10.0875 3.0625C10.15 3.125 10.1875 3.2125 10.1875 3.3C10.175 3.4875 10.0375 3.625 9.85005 3.6375ZM6.15005 3.625C5.96255 3.625 5.81255 3.475 5.81255 3.3C5.81255 3.2125 5.85005 3.125 5.91255 3.0625C6.02505 2.925 6.23755 2.9 6.37505 3.0125H6.38755C6.52505 3.1375 6.53755 3.35 6.41255 3.4875L6.37505 3.5375C6.31255 3.6 6.22505 3.6375 6.13755 3.6375M9.95005 1.6125L10.6125 0.4625C10.65 0.4 10.625 0.325 10.575 0.275C10.5125 0.25 10.45 0.2625 10.4125 0.3125L9.72505 1.5C8.62505 1.0125 7.37505 1.0125 6.28755 1.5L5.61255 0.325C5.58755 0.2875 5.53755 0.25 5.48755 0.25C5.43755 0.25 5.38755 0.275 5.36255 0.325C5.33755 0.3625 5.33755 0.425 5.36255 0.4625L6.03755 1.6125C4.86255 2.25 4.10005 3.45 3.98755 4.775H12.0125C11.9125 3.4375 11.1375 2.25 9.96255 1.6125" fill="#3DDC84"/>
<path d="M13.2 7.26248H12.675C12.65 7.27498 12.625 7.29998 12.625 7.33748V15.65C12.625 15.6875 12.65 15.7125 12.6875 15.7125H13.2375C13.875 15.7125 14.3875 15.1875 14.3875 14.5625V6.09998C14.3875 6.73748 13.875 7.24998 13.2375 7.24998H13.2V7.26248Z" fill="#073042"/>
</svg>
