<svg width="25" height="31" viewBox="0 0 25 31" fill="none" xmlns="http://www.w3.org/2000/svg">
<path d="M2.46377 5.82707L3.44203 9.95084L2.46377 14.0567L6.10507 16.2799L8.33333 19.8837L12.5 18.9156L16.6667 19.8837L18.8949 16.2799L22.5362 14.0567L21.558 9.95084L22.5362 5.82707L18.913 3.60382L16.6667 0L12.5 0.986119L8.35145 0.0179294L6.08696 3.60382L2.46377 5.82707ZM12.5181 17.1943C10.5963 17.1943 8.75311 16.4387 7.39415 15.0938C6.03519 13.7488 5.27174 11.9246 5.27174 10.0226C5.27174 8.12048 6.03519 6.29631 7.39415 4.95134C8.75311 3.60638 10.5963 2.85078 12.5181 2.85078C16.5036 2.85078 19.7464 6.06015 19.7464 10.0046C19.7464 13.985 16.5036 17.1943 12.5181 17.1943ZM12.4819 15.4014C9.47464 15.4014 7.06522 12.9988 7.06522 10.0226C7.06522 7.0642 9.47464 4.64372 12.4819 4.64372C15.4891 4.64372 17.9348 7.0642 17.9348 10.0226C17.9348 12.9988 15.4891 15.4014 12.4819 15.4014ZM19.4384 17.3736L17.1196 21.3898L13.3514 20.5471L17.9348 31L20.471 27.0555H25L19.4384 17.3736ZM5.48913 17.4991L7.75362 21.5333L11.6123 20.6189L7.06522 31L4.52899 27.0555H0L5.48913 17.4991Z" fill="white"/>
</svg>
