<svg width="65" height="65" viewBox="0 0 65 65" fill="none" xmlns="http://www.w3.org/2000/svg">
<path d="M13.5007 0C9.79189 0 7.04742 4.07501 7.17031 8.49425C7.28838 12.7398 7.13502 18.2389 6.0323 22.7232C4.92629 27.2205 3.05551 30.0693 0 30.4352V34.5648C3.05551 34.9307 4.92629 37.7795 6.0323 42.2772C7.13502 46.7614 7.28838 52.2599 7.17031 56.5057C7.04742 60.9244 9.79189 65 13.5012 65H51.5041C55.2132 65 57.9569 60.925 57.834 56.5057C57.7162 52.2602 57.8693 46.7614 58.972 42.2772C60.0788 37.7798 61.9445 34.9303 65 34.5648V30.4352C61.9445 30.0693 60.0788 27.2205 58.9723 22.7232C57.8693 18.2395 57.7162 12.7401 57.834 8.49425C57.9569 4.07565 55.2132 0 51.5041 0H13.5002H13.5007ZM44.068 40.0116C44.068 46.0969 40.4523 49.7872 34.452 49.7872H24.2374C23.9453 49.787 23.6651 49.6412 23.4586 49.3819C23.2521 49.1226 23.136 48.7709 23.1359 48.4042V16.5958C23.1359 16.229 23.252 15.8772 23.4586 15.6178C23.6652 15.3584 23.9454 15.2126 24.2376 15.2125H34.3936C39.3969 15.2125 42.6804 18.615 42.6804 23.8384C42.6804 27.5048 40.4714 30.7871 37.6573 31.3618V31.5534C41.4885 32.0809 44.068 35.4113 44.068 40.0116ZM33.3379 19.5967H27.514V29.9237H32.4195C36.2113 29.9237 38.3025 28.0068 38.3025 24.5804C38.3025 21.3698 36.5041 19.5967 33.3379 19.5967ZM27.5143 34.0213V45.4017H33.5527C37.5004 45.4017 39.5921 43.4131 39.5921 39.6757C39.5921 35.9375 37.4423 34.0207 33.2988 34.0207H27.5143V34.0213Z" fill="#7E13F8"/>
</svg>
