<svg width="81" height="81" viewBox="0 0 81 81" fill="none" xmlns="http://www.w3.org/2000/svg">
<path d="M42.601 5.06251C41.7324 5.06215 40.899 5.40517 40.2823 6.01679L40.2494 6.0421L18.5364 18.5794L40.1938 40.2216V40.2342L66.2226 66.2479L71.1838 57.3151L53.293 14.3851L44.9424 6.03957C44.6356 5.72926 44.2701 5.48307 43.8673 5.31533C43.4645 5.14759 43.0323 5.06165 42.5959 5.06251H42.601Z" fill="#4FC3F7"/>
<path d="M18.5869 18.5288L6.04457 40.209L6.01926 40.2419C5.71478 40.5474 5.4735 40.91 5.3092 41.3089C5.14491 41.7077 5.06084 42.135 5.06178 42.5664C5.06272 42.9978 5.14866 43.4247 5.31468 43.8228C5.48071 44.221 5.72357 44.5825 6.02939 44.8867L6.04204 44.8994L16.4354 55.2952L57.0974 71.2775L66.2909 66.1771L66.0428 65.929L65.9795 65.9341L40.4873 40.4241H40.4569L18.5869 18.5288Z" fill="#01579B"/>
<path d="M18.5312 18.5388L40.6873 40.6999H40.7202L66.2175 66.2073L75.9248 64.3595L75.9375 35.6627L65.6884 25.6263C63.1346 23.3466 59.9332 21.9202 56.5304 21.5459L56.5354 21.4371L18.5363 18.5413L18.5312 18.5388Z" fill="#01579B"/>
<path d="M18.5591 18.5668L40.7278 40.7152V40.7481L66.2402 66.2403L64.3848 75.9376H35.6653L25.6238 65.6911C23.345 63.1369 21.9195 59.9355 21.546 56.533L21.4321 56.5431L18.5591 18.5668Z" fill="#64B5F6"/>
</svg>
