<svg width="16" height="16" viewBox="0 0 16 16" fill="none" xmlns="http://www.w3.org/2000/svg">
<g clip-path="url(#clip0_297_2)">
<path fill-rule="evenodd" clip-rule="evenodd" d="M7.99992 0.637817C3.83154 0.637817 0.451416 4.01719 0.451416 8.18632C0.451416 11.5216 2.61429 14.3509 5.61354 15.3492C5.99067 15.4192 6.12917 15.1854 6.12917 14.9861C6.12917 14.8061 6.12217 14.2114 6.11892 13.5807C4.01892 14.0373 3.57579 12.6901 3.57579 12.6901C3.23242 11.8176 2.73767 11.5856 2.73767 11.5856C2.05267 11.1171 2.78929 11.1268 2.78929 11.1268C3.54717 11.1799 3.94642 11.9047 3.94642 11.9047C4.61967 13.0584 5.71229 12.7249 6.14304 12.5322C6.21079 12.0443 6.40642 11.7112 6.62229 11.5227C4.94567 11.3321 3.18304 10.6847 3.18304 7.79232C3.18304 6.96819 3.47804 6.29482 3.96092 5.76607C3.88242 5.57607 3.62404 4.80832 4.03392 3.76857C4.03392 3.76857 4.66767 3.56569 6.11017 4.54232C6.71242 4.37494 7.35829 4.29082 7.99992 4.28794C8.64117 4.29082 9.28742 4.37469 9.89079 4.54207C11.3315 3.56544 11.9645 3.76832 11.9645 3.76832C12.3754 4.80794 12.117 5.57582 12.0387 5.76582C12.5227 6.29457 12.8155 6.96794 12.8155 7.79207C12.8155 10.6913 11.0497 11.3296 9.36879 11.5166C9.63967 11.7508 9.88092 12.2103 9.88092 12.9144C9.88092 13.9244 9.87217 14.7373 9.87217 14.9859C9.87217 15.1868 10.0082 15.4222 10.3907 15.3481C13.3882 14.3488 15.5485 11.5203 15.5485 8.18632C15.5484 4.01744 12.1687 0.637817 7.99992 0.637817Z" fill="#181616"/>
<path d="M3.31045 11.4757C3.29382 11.5132 3.23482 11.5244 3.18107 11.4988C3.12607 11.4743 3.09545 11.4232 3.1132 11.3856C3.12945 11.3468 3.18857 11.3362 3.2432 11.3621C3.2982 11.3867 3.32945 11.4383 3.31032 11.4758L3.31045 11.4757ZM3.6162 11.8168C3.58032 11.8502 3.50995 11.8347 3.4622 11.7818C3.4127 11.7293 3.40345 11.6589 3.44007 11.6251C3.47732 11.5918 3.54557 11.6076 3.59507 11.6601C3.64432 11.7133 3.65407 11.7831 3.61632 11.8169L3.6162 11.8168ZM3.91395 12.2514C3.8677 12.2837 3.79195 12.2536 3.7452 12.1864C3.69895 12.1192 3.69895 12.0386 3.74645 12.0064C3.79307 11.9742 3.8677 12.0033 3.9152 12.0698C3.9612 12.1379 3.9612 12.2187 3.91395 12.2514ZM4.32157 12.6716C4.28032 12.7172 4.19207 12.7049 4.12757 12.6428C4.0617 12.5819 4.04332 12.4953 4.0847 12.4498C4.1267 12.4041 4.21532 12.4168 4.2802 12.4786C4.34607 12.5393 4.36595 12.6261 4.32182 12.6714L4.32157 12.6716ZM4.88407 12.9154C4.8657 12.9746 4.78095 13.0014 4.69532 12.9762C4.60995 12.9503 4.55407 12.8812 4.57157 12.8214C4.58907 12.7618 4.67445 12.7339 4.76057 12.7608C4.84595 12.7866 4.90182 12.8553 4.88407 12.9154ZM5.50195 12.9606C5.50407 13.0228 5.43157 13.0743 5.34195 13.0756C5.25157 13.0777 5.17845 13.0272 5.17757 12.9659C5.17757 12.9031 5.24857 12.8522 5.33882 12.8504C5.42845 12.8488 5.50207 12.8988 5.50207 12.9604L5.50195 12.9606ZM6.0767 12.8628C6.08745 12.9234 6.02507 12.9858 5.93595 13.0024C5.84845 13.0187 5.7672 12.9809 5.75595 12.9208C5.7452 12.8586 5.8087 12.7962 5.8962 12.7801C5.98545 12.7647 6.06545 12.8012 6.0767 12.8628Z" fill="#181616"/>
</g>
<defs>
<clipPath id="clip0_297_2">
<rect width="16" height="16" fill="white"/>
</clipPath>
</defs>
</svg>
