<svg width="55" height="78" viewBox="0 0 55 78" fill="none" xmlns="http://www.w3.org/2000/svg">
<rect width="55" height="78" fill="white"/>
<path d="M54.9044 15.2902L49.9112 71.5452L27.4665 77.803L5.08361 71.5539L0.0955811 15.2902H54.9044Z" fill="#E44D26"/>
<path d="M27.5 73.0197L45.6365 67.9631L49.9033 19.8904H27.5V73.0197Z" fill="#F16529"/>
<path d="M17.7934 33.6917H27.5V26.7911H10.2947L10.4588 28.6424L12.1453 47.6584H27.5V40.7579H18.4205L17.7934 33.6917ZM19.3398 51.1088H12.4519L13.4131 61.9436L27.4684 65.8674L27.5 65.8588V58.6793L27.4699 58.6873L19.8284 56.6122L19.3398 51.1088Z" fill="#EBEBEB"/>
<path d="M27.4764 47.6584H35.9256L35.1289 56.6079L27.4762 58.6851V65.8642L41.5427 61.9436L41.6458 60.7777L43.2584 42.6109L43.4258 40.7579H27.4764V47.6584ZM27.4764 33.6748V33.6917H44.0501L44.1876 32.1407L44.5004 28.6424L44.6643 26.7911H27.4764V33.6748Z" fill="white"/>
</svg>
