<svg width="68" height="80" viewBox="0 0 68 80" fill="none" xmlns="http://www.w3.org/2000/svg">
<path d="M21.6477 61.8573C21.6477 61.8573 18.1585 63.6233 24.1342 64.2192C31.3747 64.9386 35.0747 64.8354 43.0515 63.524C43.0515 63.524 45.153 64.6667 48.0822 65.6573C30.194 72.3227 7.59934 65.2709 21.6477 61.8573ZM19.4607 53.158C19.4607 53.158 15.5462 55.6783 21.527 56.2169C29.2615 56.9115 35.3682 56.9681 45.9405 55.1983C45.9405 55.1983 47.3993 56.4875 49.6969 57.1916C28.0736 62.692 3.98935 57.6245 19.4607 53.158Z" fill="#0074BD"/>
<path d="M38.0253 38.3527C42.4839 42.823 36.8561 46.8421 36.8561 46.8421C36.8561 46.8421 48.1702 41.7556 42.9753 35.3831C38.1215 29.4431 34.4007 26.4927 54.5455 16.3158C54.5455 16.3164 22.9237 23.1937 38.0253 38.3527Z" fill="#EA2D2E"/>
<path d="M61.5307 68.026C61.5307 68.026 64.111 69.875 58.6879 71.3041C48.3769 74.0185 15.7638 74.8369 6.70606 71.4127C3.45162 70.1813 9.5569 68.474 11.4777 68.1137C13.4804 67.7369 14.6239 67.8055 14.6239 67.8055C11.0024 65.5899 -8.78305 72.1581 4.57543 74.042C41.0031 79.1736 70.9781 71.7311 61.5307 68.026ZM23.3555 43.9218C23.3555 43.9218 6.76821 47.346 17.4821 48.5908C22.0065 49.1169 31.0219 48.9962 39.4252 48.3837C46.2909 47.8823 53.1807 46.8117 53.1807 46.8117C53.1807 46.8117 50.762 47.7133 49.0101 48.7516C32.1625 52.6028 -0.376054 50.809 8.99243 46.872C16.9125 43.5431 23.3555 43.9218 23.3555 43.9218ZM53.112 58.3754C70.2367 50.6444 62.3182 43.2146 56.7912 44.2154C55.44 44.46 54.8339 44.6729 54.8339 44.6729C54.8339 44.6729 55.3369 43.9873 56.2962 43.6925C67.2294 40.3534 75.6364 53.5432 52.7698 58.7675C52.7698 58.7662 53.0323 58.5597 53.112 58.3754Z" fill="#0074BD"/>
<path d="M43.0112 0C43.0112 0 52.5357 8.2773 33.9753 21.0014C19.0908 31.2115 30.5813 37.0316 33.9701 43.6842C25.2808 36.876 18.9072 30.8817 23.1824 25.3033C29.4606 17.1166 46.8532 13.1457 43.0112 0Z" fill="#EA2D2E"/>
<path d="M25.1599 79.7387C41.7666 80.6979 67.2751 79.2047 67.8788 72.1053C67.8788 72.1053 66.718 74.7967 54.1529 76.9319C39.9771 79.3429 22.4897 79.0619 12.1212 77.5153C12.1212 77.516 14.2454 79.1046 25.1599 79.7387Z" fill="#0074BD"/>
</svg>
