<svg width="68" height="68" viewBox="0 0 68 68" fill="none" xmlns="http://www.w3.org/2000/svg">
<path d="M4.25 4.25H63.75V63.75H4.25V4.25Z" fill="#F5DE19"/>
<path d="M44.2192 50.7344C44.7269 51.7635 45.5147 52.6285 46.4921 53.2299C47.4694 53.8314 48.5966 54.1449 49.7442 54.1344C52.0604 54.1344 53.5415 52.9763 53.5415 51.3719C53.5415 49.4594 52.02 48.7751 49.47 47.6595L48.0718 47.0603C44.0343 45.3411 41.3568 43.1885 41.3568 38.6368C41.3568 34.4441 44.5443 31.2503 49.5444 31.2503C51.163 31.1336 52.7801 31.496 54.1941 32.2922C55.6081 33.0884 56.7565 34.2832 57.4962 35.7276L53.125 38.522C52.8401 37.8059 52.3443 37.1932 51.7033 36.7652C51.0624 36.3371 50.3066 36.1139 49.5359 36.125C49.1996 36.0913 48.8601 36.1281 48.5388 36.2329C48.2175 36.3377 47.9216 36.5083 47.6699 36.7339C47.4182 36.9594 47.2163 37.2348 47.0769 37.5427C46.9376 37.8506 46.8639 38.1841 46.8605 38.522C46.8605 40.1986 47.8997 40.8786 50.2988 41.922L51.697 42.5213C56.4485 44.5591 59.1345 46.6353 59.1345 51.3039C59.1345 56.338 55.1799 59.0963 49.8695 59.0963C47.8006 59.2267 45.7381 58.7564 43.9303 57.7419C42.1226 56.7273 40.6466 55.2118 39.6802 53.3779L44.2192 50.7344ZM24.4673 51.2189C25.3449 52.7765 26.1439 54.094 28.0649 54.094C29.9009 54.094 31.0612 53.3758 31.0612 50.5814V31.569H36.652V50.6558C36.652 56.4443 33.252 59.0793 28.3029 59.0793C26.5535 59.1749 24.8161 58.7389 23.3191 57.8286C21.8221 56.9184 20.6356 55.5765 19.9155 53.9793L24.4673 51.2189Z" fill="black"/>
</svg>
