<svg width="68" height="75" viewBox="0 0 68 75" fill="none" xmlns="http://www.w3.org/2000/svg">
<path d="M67.9618 16.9669C67.987 17.0668 68 17.1698 68 17.2734V33.3719C68 33.7925 67.7902 34.1809 67.4494 34.3901L54.8383 42.1698V57.5887C54.8382 57.795 54.7876 57.9977 54.6915 58.1764C54.5953 58.3552 54.4571 58.5037 54.2906 58.6073L27.965 74.8438C27.9047 74.8802 27.8391 74.9036 27.7732 74.9289C27.7485 74.9374 27.7254 74.9537 27.6994 74.9611C27.5153 75.013 27.3219 75.013 27.1378 74.9611C27.1076 74.9525 27.0802 74.9346 27.0515 74.9229C26.9912 74.8993 26.9283 74.8788 26.8709 74.8438L0.550641 58.607C0.383424 58.5041 0.244478 58.3558 0.147807 58.177C0.0511353 57.9983 0.000153735 57.7954 0 57.5887L0 9.29327C0 9.1874 0.0138125 9.08467 0.03825 8.98506C0.0464844 8.9512 0.0656094 8.92046 0.0767656 8.8866C0.0972188 8.82512 0.116609 8.76195 0.146625 8.70474C0.167078 8.66661 0.197094 8.63587 0.221797 8.60059C0.253406 8.55363 0.282094 8.50525 0.319016 8.46398C0.350625 8.4304 0.391797 8.40536 0.427391 8.37605C0.467234 8.34076 0.502563 8.30262 0.547719 8.27473H0.549047L13.7097 0.156618C13.8764 0.0540011 14.0653 0 14.2576 0C14.4498 0 14.6387 0.0540011 14.8054 0.156618L27.9661 8.27473H27.9687C28.0125 8.30433 28.0497 8.34076 28.0893 8.37462C28.1249 8.40394 28.1648 8.4304 28.1961 8.46285C28.2346 8.50525 28.262 8.55391 28.2946 8.60059C28.318 8.63587 28.3496 8.66661 28.3688 8.70474C28.4001 8.76337 28.4179 8.82512 28.4399 8.88688C28.4508 8.92046 28.47 8.9512 28.4782 8.98649C28.5034 9.08638 28.5164 9.18968 28.5167 9.29327V39.4577L39.4833 32.6923V17.2719C39.4833 17.1695 39.4971 17.065 39.5218 16.9669C39.5314 16.9316 39.5492 16.9008 39.5601 16.8673C39.5821 16.8055 39.6012 16.742 39.6312 16.6851C39.6517 16.647 39.6817 16.6163 39.7054 16.581C39.738 16.534 39.7654 16.4856 39.8036 16.4444C39.8355 16.4108 39.8751 16.3857 39.9107 16.3564C39.9519 16.3211 39.9874 16.283 40.0313 16.2551H40.0326L53.1946 8.13699C53.3612 8.0341 53.5501 7.97994 53.7424 7.97994C53.9348 7.97994 54.1237 8.0341 54.2903 8.13699L67.451 16.2551C67.4974 16.2844 67.533 16.3211 67.5742 16.3547C67.6082 16.3843 67.648 16.4108 67.6797 16.4429C67.7179 16.4856 67.7453 16.534 67.7779 16.581C67.8029 16.6163 67.8329 16.647 67.8523 16.6851C67.8837 16.742 67.9015 16.8055 67.9232 16.8673C67.9357 16.9008 67.9535 16.9316 67.9618 16.9669ZM65.8062 32.6925V19.3056L61.2005 22.1461L54.838 26.0711V39.458L65.8075 32.6925H65.8062ZM52.6455 56.9094V43.5131L46.3869 47.3428L28.5154 58.2709V71.7927L52.6455 56.9094ZM2.1938 11.3252V56.9094L26.3213 71.7916V58.2723L13.7169 50.6295L13.7129 50.6266L13.7076 50.6238C13.6651 50.5973 13.6292 50.5592 13.5896 50.527C13.5551 50.4974 13.5155 50.4741 13.4855 50.4416L13.4829 50.4374C13.4473 50.4007 13.4226 50.3551 13.3925 50.3141C13.3649 50.2743 13.3323 50.2407 13.3102 50.1997L13.3089 50.1952C13.2842 50.1514 13.269 50.0984 13.2512 50.0486C13.2334 50.0045 13.2103 49.9633 13.1992 49.9166V49.9152C13.1856 49.8594 13.183 49.8005 13.1774 49.7433C13.1721 49.6994 13.1609 49.6553 13.1609 49.6112V18.091L6.79947 14.1643L2.1938 11.3269V11.3252ZM14.259 2.53064L3.29348 9.29327L14.2564 16.0556L25.2203 9.29156L14.2564 2.53064H14.259ZM19.9615 44.7343L26.3226 40.8109V11.3252L21.7175 14.166L15.3545 18.0907V47.5761L19.9615 44.7343ZM53.7423 10.511L42.7784 17.2734L53.7423 24.036L64.7049 17.2719L53.7423 10.511ZM52.6453 26.0711L46.2828 22.1461L41.6774 19.3056V32.6925L48.0385 36.6161L52.6455 39.458L52.6453 26.0711ZM27.417 56.239L43.4987 46.4025L51.5376 41.4871L40.5817 34.729L27.9674 42.5096L16.4706 49.601L27.417 56.239Z" fill="#FF2D20"/>
</svg>
