<svg width="33" height="40" viewBox="0 0 33 40" fill="none" xmlns="http://www.w3.org/2000/svg">
<path d="M18.5367 39.1012C22.9453 34.0726 33 21.8848 33 15.0389C33 6.73618 25.6094 0 16.5 0C7.39062 0 0 6.73618 0 15.0389C0 21.8848 10.0547 34.0726 14.4633 39.1012C15.5203 40.2996 17.4797 40.2996 18.5367 39.1012ZM16.5 10.0259C17.9587 10.0259 19.3576 10.5541 20.3891 11.4942C21.4205 12.4343 22 13.7094 22 15.0389C22 16.3684 21.4205 17.6435 20.3891 18.5836C19.3576 19.5237 17.9587 20.0519 16.5 20.0519C15.0413 20.0519 13.6424 19.5237 12.6109 18.5836C11.5795 17.6435 11 16.3684 11 15.0389C11 13.7094 11.5795 12.4343 12.6109 11.4942C13.6424 10.5541 15.0413 10.0259 16.5 10.0259Z" fill="white"/>
</svg>
