<svg width="69" height="69" viewBox="0 0 69 69" fill="none" xmlns="http://www.w3.org/2000/svg">
<path fill-rule="evenodd" clip-rule="evenodd" d="M47.0381 53.9812C47.1292 53.806 47.2165 53.6513 47.2909 53.4912C47.3378 53.3887 47.41 53.3683 47.5119 53.371C48.1227 53.3882 48.7334 53.4071 49.3447 53.413C49.8639 53.4184 50.384 53.4087 50.9037 53.4028C51.4891 53.3957 52.0745 53.365 52.6594 53.3817C53.4384 53.4044 54.1974 53.5569 54.9019 53.9035C55.7434 54.3181 56.38 54.9493 56.814 55.7811C57.0869 56.3085 57.2572 56.8828 57.3158 57.4738C57.4086 58.3406 57.3477 59.1874 57.0727 60.0165C56.732 61.044 56.0852 61.8305 55.1866 62.4197C54.4949 62.873 53.7365 63.1409 52.9236 63.294C52.0632 63.4563 51.2002 63.404 50.3371 63.4067C49.3906 63.4104 48.4445 63.39 47.4979 63.3792C47.3324 63.3776 47.3087 63.3463 47.3524 63.1884L47.3928 63.0428C47.485 62.7528 47.5346 62.7399 47.8289 62.6913C48.0376 62.6589 48.2373 62.5831 48.4149 62.4687C48.514 62.4029 48.555 62.2315 48.5938 62.0994C48.6272 61.9841 48.6289 61.8574 48.6299 61.7356C48.6434 59.8893 48.6574 58.0435 48.665 56.1983C48.6671 55.7316 48.6554 55.2649 48.6299 54.7989C48.6116 54.4728 48.4375 54.2496 48.0494 54.1725C47.7475 54.1127 47.4435 54.0663 47.14 54.013L47.0381 53.9812ZM55.7041 58.4516C55.6631 58.084 55.6431 57.7131 55.5774 57.3508C55.42 56.4813 55.0394 55.724 54.371 55.1305C53.2901 54.1715 51.9888 54.0238 50.625 54.138C50.3145 54.1639 50.2477 54.2701 50.2428 54.5892C50.2353 55.042 50.2277 55.4949 50.2272 55.9477C50.225 57.3837 50.225 58.8198 50.2272 60.2559C50.2272 60.6648 50.2327 61.0731 50.2439 61.4806C50.2568 61.8978 50.4083 62.2509 50.8169 62.4126C51.4611 62.6676 52.1387 62.6978 52.8147 62.5938C53.8944 62.4283 54.6496 61.7992 55.1564 60.8564C55.5574 60.1082 55.6706 59.2915 55.7041 58.4516ZM58.3287 63.3414C58.3158 63.1177 58.4075 62.9328 58.5207 62.763C58.5514 62.7172 58.657 62.7194 58.7298 62.7048L59.3476 62.5824C59.5659 62.5361 59.6807 62.3895 59.7114 62.1755C59.7319 62.0342 59.7513 61.8914 59.753 61.7485C59.7676 60.6181 59.7782 59.4877 59.7848 58.3573C59.7901 57.2252 59.7858 56.0932 59.7858 54.9612L59.781 54.745C59.7589 54.3812 59.5831 54.1925 59.222 54.1391L58.4387 54.02C58.3422 54.007 58.3072 53.9607 58.3422 53.875C58.4026 53.7289 58.4603 53.5774 58.5455 53.4459C58.5773 53.3974 58.6845 53.3785 58.7568 53.3801C59.1309 53.3855 59.505 53.4135 59.8791 53.413L63.1356 53.3936C63.763 53.3931 64.3689 53.5025 64.9317 53.8027C65.5511 54.1326 65.8977 54.6431 65.9969 55.3385C66.1004 56.069 65.8789 56.6846 65.3452 57.1735C65.1258 57.3751 64.8417 57.5066 64.5873 57.6705L64.5042 57.7223C64.7404 57.8091 64.9651 57.884 65.184 57.9735C65.8244 58.236 66.3338 58.6462 66.6034 59.3012C66.8163 59.8181 66.8163 60.3572 66.6901 60.893C66.4939 61.7318 65.9414 62.2897 65.2228 62.7118C64.5485 63.108 63.8186 63.3388 63.0412 63.3776C62.3243 63.4137 61.6041 63.4002 60.8855 63.4083L60.4694 63.4104C59.7768 63.3945 59.0843 63.3773 58.3918 63.3587L58.3287 63.3414ZM61.3135 60.0591H61.3205C61.3205 60.4138 61.3157 60.7685 61.3222 61.1232C61.3265 61.3528 61.3184 61.589 61.368 61.81C61.4424 62.1404 61.5933 62.4385 61.9642 62.5334C62.4601 62.6632 62.9779 62.686 63.4833 62.6002C64.1177 62.4897 64.6239 62.1717 64.9015 61.5674C65.1075 61.1184 65.1382 60.6424 65.0676 60.1561C64.9738 59.5157 64.6336 59.051 64.0681 58.7465C63.6973 58.5465 63.3016 58.4241 62.8801 58.4079C62.4078 58.3902 61.9351 58.3891 61.4629 58.3745C61.3302 58.3708 61.3119 58.4381 61.3125 58.547C61.3152 59.0505 61.3135 59.5545 61.3135 60.0591ZM62.3189 57.6468C62.5771 57.6339 62.8693 57.6301 63.1598 57.601C63.7161 57.5454 64.108 57.2657 64.3123 56.7336C64.4164 56.4636 64.4121 56.1854 64.4148 55.9045C64.4229 55.173 63.9959 54.5736 63.3011 54.3256C62.7647 54.1343 62.2116 54.131 61.6553 54.1461C61.43 54.1521 61.3292 54.2507 61.3259 54.4776L61.2925 57.4366C61.2909 57.5541 61.3416 57.6047 61.4558 57.6085L62.3189 57.6468Z" fill="#94795D"/>
<path fill-rule="evenodd" clip-rule="evenodd" d="M5.68339 62.7727L5.64404 63.2816C5.27748 63.2816 4.93949 63.2789 4.60149 63.2827C3.96486 63.2891 3.32823 63.2994 2.69106 63.3085L2.6296 63.3123C2.5385 63.3015 2.37301 63.3015 2.3687 63.2746C2.34174 63.1231 2.35037 62.9641 2.35738 62.8072C2.35792 62.7894 2.41991 62.7668 2.45603 62.7582L2.95142 62.6477C3.26031 62.5673 3.3692 62.4342 3.38375 62.1151C3.40046 61.7555 3.41717 61.3954 3.41879 61.0359C3.42364 60.1507 3.41825 59.2667 3.42203 58.3815C3.42257 58.1745 3.35087 58.0203 3.15789 57.9362C2.92856 57.8345 2.69763 57.7364 2.46519 57.6419C2.35522 57.5977 2.21237 57.5735 2.22531 57.4258C2.23824 57.2754 2.37678 57.236 2.50724 57.2064C3.04738 57.0829 3.58806 56.9627 4.12658 56.8312C4.30016 56.7886 4.46619 56.7169 4.67373 56.6447C4.68451 56.7568 4.70446 56.8635 4.7023 56.9702L4.67049 57.4775C4.66996 57.5346 4.6996 57.6112 4.74219 57.643C4.76806 57.6629 4.85485 57.6268 4.89798 57.5934C5.35834 57.243 5.84565 56.9406 6.40142 56.7643C7.26231 56.491 8.00136 56.7444 8.51886 57.4867C8.70107 57.7481 8.7016 57.7481 8.95442 57.5654C9.38837 57.25 9.84226 56.9719 10.3501 56.7886C11.4648 56.3859 12.536 56.8969 12.9235 58.0198C13.0648 58.4273 13.1187 58.8483 13.1176 59.2785L13.1074 62.1345C13.1068 62.37 13.185 62.5043 13.4092 62.5776C13.661 62.66 13.9219 62.7167 14.2054 62.791L14.1397 63.2821C13.8173 63.2821 13.5208 63.28 13.2243 63.2827C12.4998 63.2891 11.7753 63.2929 11.0514 63.3096C10.9252 63.3129 10.8924 63.2816 10.8859 63.1635C10.8649 62.7857 10.8616 62.7862 11.2174 62.701L11.3371 62.6703C11.6848 62.5754 11.8007 62.4687 11.8034 62.1161C11.8115 61.1038 11.8325 60.0887 11.7813 59.0785C11.7279 58.0306 10.8961 57.4727 9.88053 57.7411C9.55277 57.8309 9.24408 57.9796 8.96952 58.1799C8.87518 58.2473 8.85739 58.3249 8.86494 58.443C8.89405 58.8893 8.91076 59.336 8.91507 59.7831C8.92154 60.5653 8.91184 61.3474 8.91507 62.1302C8.91615 62.4471 9.0245 62.5684 9.3377 62.6417L9.80291 62.749L9.88916 62.7684C9.89563 62.9172 9.90156 63.066 9.89455 63.2147C9.89024 63.308 9.818 63.3161 9.73714 63.3145C9.28487 63.3032 8.83206 63.2881 8.37978 63.2891C7.8294 63.2902 7.27956 63.3058 6.72971 63.3156H6.60034C6.60034 63.1576 6.59279 63.0067 6.60573 62.8563C6.60842 62.8202 6.67203 62.7695 6.7157 62.7582L7.25799 62.6433C7.48817 62.5867 7.59814 62.4687 7.61108 62.2347C7.67253 61.1512 7.71674 60.0672 7.61485 58.9842C7.58998 58.7703 7.53063 58.5619 7.43912 58.367C7.1615 57.7535 6.53673 57.4974 5.816 57.6818C5.4737 57.7691 5.16481 57.926 4.87264 58.1238C4.80912 58.1633 4.75693 58.2185 4.72121 58.2842C4.68548 58.3499 4.66745 58.4237 4.66888 58.4985C4.6696 59.5795 4.67193 60.6601 4.67589 61.7404L4.68182 62.1571C4.68828 62.4477 4.81173 62.6008 5.10013 62.6633C5.28557 62.7053 5.47316 62.7339 5.68339 62.7727Z" fill="#50382B"/>
<path fill-rule="evenodd" clip-rule="evenodd" d="M38.274 56.7552C38.3576 57.1617 38.356 57.5272 38.0573 57.8043C37.7608 58.0797 37.3856 57.987 37.0196 57.9256C37.0536 58.1185 37.0913 58.2824 37.1096 58.4484C37.2428 59.6824 36.7118 60.5982 35.5674 61.1217C35.1351 61.319 34.6763 61.3923 34.2079 61.43C33.975 61.4483 33.7712 61.6262 33.7491 61.8176C33.7265 62.0116 33.8483 62.2111 34.092 62.2693C34.3793 62.3378 34.679 62.3572 34.9739 62.3911C35.6067 62.4634 36.2466 62.4963 36.8719 62.6095C37.8174 62.7798 38.3452 63.6051 38.1786 64.5549C38.0304 65.4002 37.5409 66.0153 36.8584 66.4869C35.7086 67.2837 34.4472 67.5166 33.1039 67.1101C32.3357 66.8772 31.7939 66.3721 31.6069 65.5549C31.5131 65.1458 31.6128 64.7754 31.9206 64.4978C32.2866 64.169 32.685 63.8757 33.0683 63.5652L33.1923 63.4407L33.05 63.341C32.6591 63.1555 32.3465 62.9016 32.2252 62.4607C32.1837 62.3114 32.2268 62.2133 32.3535 62.1367C32.5691 62.007 32.7835 61.8749 32.9966 61.7405C33.0969 61.678 33.196 61.6133 33.2893 61.541C33.4165 61.444 33.4052 61.3718 33.2532 61.3157C32.8996 61.1853 32.5853 60.9961 32.3416 60.705C31.9346 60.2193 31.8193 59.6408 31.8527 59.0301C31.905 58.0759 32.423 57.4474 33.265 57.0431C34.2661 56.5628 35.2704 56.5326 36.2908 56.9703C36.6681 57.132 37.066 57.1666 37.4708 57.1385C37.7732 57.117 38.0374 57.0027 38.274 56.7552ZM34.5852 63.5911C33.8338 63.5846 33.5982 63.6773 33.1572 64.1264C32.6635 64.6299 32.6661 65.328 33.1589 65.8336C33.533 66.2169 33.9998 66.3964 34.5189 66.4503C35.1254 66.5128 35.7226 66.4875 36.2736 66.184C36.8611 65.8589 37.1533 65.2552 37.0212 64.6471C36.9118 64.1453 36.542 63.9156 36.0919 63.7835C35.5798 63.6337 35.0504 63.6051 34.5852 63.5911ZM33.1093 58.7891C33.1367 58.9977 33.1481 59.2091 33.1944 59.4134C33.3146 59.9427 33.5448 60.4079 34.0715 60.6435C34.6898 60.9211 35.4795 60.802 35.7501 59.9341C35.9351 59.3565 35.9136 58.7326 35.6892 58.1692C35.5945 57.9114 35.4234 57.6888 35.1987 57.531C34.6618 57.1563 33.6931 57.1067 33.2985 57.9347C33.1702 58.2037 33.12 58.4899 33.1093 58.7891Z" fill="#4F382B"/>
<path fill-rule="evenodd" clip-rule="evenodd" d="M25.5247 56.622C25.5446 56.7142 25.5845 56.8188 25.5856 56.9239C25.5872 57.1239 25.5656 57.3239 25.5543 57.5239V57.6974L25.7236 57.5681C26.1872 57.1864 26.6853 56.8614 27.2653 56.6862C28.3122 56.3708 29.3579 56.9438 29.6992 58.0101C29.8285 58.4155 29.8797 58.8322 29.8846 59.2559C29.8954 60.1971 29.9018 61.1383 29.9116 62.0795C29.9148 62.4175 29.9536 62.4779 30.2733 62.5754C30.4552 62.6297 30.6407 62.671 30.8285 62.6989C30.9315 62.715 30.9757 62.7555 30.9703 62.8563L30.9713 62.949C30.9676 63.3387 30.9406 63.3565 30.5627 63.3554C29.6582 63.3538 28.7542 63.3592 27.8496 63.3668C27.5801 63.3689 27.5796 63.377 27.5526 63.1107L27.5472 62.9576C27.5639 62.728 27.5693 62.7301 27.7952 62.6967C27.9472 62.6741 28.0981 62.639 28.2464 62.6002C28.3989 62.5609 28.4723 62.4482 28.4927 62.2973C28.503 62.2207 28.5165 62.1442 28.5159 62.0676C28.503 61.0391 28.5197 60.0095 28.4636 58.9826C28.4183 58.1519 27.7844 57.657 26.9505 57.7136C26.5485 57.7415 26.1621 57.8802 25.8341 58.1141C25.6114 58.2699 25.5667 58.4947 25.5678 58.7368C25.5728 59.6984 25.5807 60.6603 25.5915 61.6224C25.5937 61.8331 25.5996 62.0439 25.6195 62.2531C25.6406 62.4816 25.7209 62.5738 25.9451 62.6234C26.1597 62.6708 26.3785 62.6983 26.6076 62.7366L26.627 62.9134C26.6346 63.3258 26.5915 63.3565 26.1909 63.3549C25.2557 63.3511 24.3204 63.3571 23.3857 63.3673C23.2385 63.3695 23.176 63.3231 23.1797 63.1797L23.1776 63.1183C23.1533 62.7468 23.1641 62.7328 23.5156 62.6725L23.6816 62.639C24.0622 62.5533 24.1598 62.452 24.1651 62.0655C24.1829 60.8413 24.1894 59.6176 24.2018 58.3934C24.2034 58.2176 24.1371 58.0813 23.9732 58.0085C23.7433 57.9077 23.512 57.81 23.2795 57.7152C23.1512 57.6624 23.0045 57.629 22.9997 57.4516C22.9965 57.3266 23.1301 57.2161 23.3129 57.1789C23.68 57.1045 24.0503 57.0425 24.4131 56.9514C24.7743 56.8614 25.129 56.7406 25.5247 56.622Z" fill="#4F372B"/>
<path fill-rule="evenodd" clip-rule="evenodd" d="M45.7475 59.8198C45.7302 60.9632 45.4332 61.8877 44.6246 62.5814C43.6004 63.4617 42.0026 63.7609 40.6965 63.1027C40.1391 62.8219 39.7294 62.3912 39.4626 61.8321C39.0534 60.9723 38.951 60.0683 39.1645 59.1422C39.3758 58.2264 39.9305 57.5628 40.7606 57.1331C41.6145 56.6916 42.5137 56.5191 43.4619 56.7509C44.6613 57.0437 45.5232 58.0215 45.6947 59.2667C45.7254 59.4851 45.7372 59.7061 45.7475 59.8198ZM44.3583 60.4392L44.312 60.4338C44.312 60.326 44.3179 60.2182 44.3109 60.1104C44.2715 59.4387 44.1206 58.7988 43.7314 58.2366C43.3621 57.704 42.8592 57.3897 42.2048 57.3439C41.4722 57.2922 40.8566 57.7018 40.6404 58.4501C40.3159 59.5735 40.4259 60.6683 40.9962 61.6974C41.2447 62.1459 41.6129 62.4769 42.1061 62.651C43.0727 62.9911 43.9298 62.5507 44.1815 61.561C44.2742 61.1955 44.3012 60.8133 44.3583 60.4392Z" fill="#4F382B"/>
<path fill-rule="evenodd" clip-rule="evenodd" d="M22.004 59.9081C21.984 60.7286 21.7905 61.487 21.2838 62.1463C20.741 62.8525 19.9949 63.2298 19.1464 63.3888C18.1432 63.5764 17.2009 63.4061 16.395 62.7328C16.0123 62.4126 15.7509 62.0024 15.5784 61.5355C15.2954 60.7701 15.2247 59.9857 15.3989 59.1863C15.5848 58.3308 16.0678 57.6769 16.8166 57.2381C17.6823 56.732 18.6165 56.5061 19.6143 56.7336C20.8973 57.0268 21.638 57.8629 21.9118 59.1286C21.9668 59.3842 21.9743 59.6483 22.004 59.9081ZM20.5992 60.4493L20.562 60.4439V60.2898C20.541 59.5372 20.3938 58.8203 19.9448 58.195C19.6122 57.7308 19.1669 57.4398 18.596 57.3584C17.6656 57.2257 17.0576 57.7777 16.8559 58.5276C16.5929 59.5071 16.6754 60.4747 17.0824 61.4035C17.3363 61.9824 17.7373 62.4336 18.3535 62.6525C19.3141 62.9937 20.1841 62.542 20.4272 61.556C20.5167 61.1954 20.5437 60.8191 20.5992 60.4493Z" fill="#4F372B"/>
<path fill-rule="evenodd" clip-rule="evenodd" d="M44.3982 18.0823C45.0597 19.9943 45.5351 21.9463 45.692 23.9688C45.8861 26.4787 45.7976 28.9713 45.2683 31.4397L45.2004 31.637C45.0343 31.6375 44.8651 31.6165 44.7028 31.6419C43.332 31.8575 41.9628 32.0807 40.593 32.3027C39.1769 32.5324 37.7597 32.7529 36.3463 32.9976C35.8455 33.0838 35.2256 32.9809 35.0234 33.673L34.9264 33.7059L34.9948 29.567L34.9253 19.5803L35.5851 19.4671C36.6638 19.2909 37.7424 19.1113 38.8227 18.9394C40.1111 18.7351 41.4005 18.5356 42.6899 18.3362C43.2592 18.2488 43.829 18.1674 44.3982 18.0823Z" fill="#439934"/>
<path fill-rule="evenodd" clip-rule="evenodd" d="M33.5648 45.7723C32.8688 45.174 32.1486 44.602 31.4818 43.9724C27.8927 40.5871 25.267 36.6018 23.9738 31.7971C23.6174 30.4753 23.3802 29.1315 23.3037 27.7655C23.2498 26.8092 23.1727 25.8448 23.2406 24.8933C23.4201 22.3635 23.7862 19.858 24.5279 17.4209L24.5689 17.3643C24.6411 17.4602 24.7446 17.5454 24.7813 17.6537C25.5054 19.7863 26.2249 21.9208 26.9397 24.0573C29.187 30.7691 31.4317 37.4826 33.6828 44.1934C33.727 44.3244 33.8408 44.4317 33.9227 44.5497L33.5648 45.7723Z" fill="#45A538"/>
<path fill-rule="evenodd" clip-rule="evenodd" d="M44.3982 18.0823C43.8285 18.1669 43.2587 18.2489 42.69 18.3362C41.4005 18.5356 40.1111 18.7351 38.8227 18.9394C37.743 19.1108 36.6643 19.2903 35.5851 19.4671L34.9253 19.5803L34.9199 19.1502C34.8978 18.7965 34.8612 18.4429 34.8563 18.0893L34.7825 11.3219C34.7652 9.9101 34.7393 8.49829 34.7108 7.08703C34.6962 6.20987 34.6709 5.33293 34.6347 4.4564C34.6132 3.9858 34.5372 3.51735 34.507 3.04675C34.4892 2.77614 34.5129 2.50338 34.5189 2.23169C34.8552 2.88342 35.1846 3.53999 35.5301 4.18687C36.0762 5.20947 36.9468 5.96308 37.7311 6.78515C40.8286 10.0362 43.0274 13.814 44.3982 18.0823Z" fill="#46A037"/>
<path fill-rule="evenodd" clip-rule="evenodd" d="M34.927 33.706L35.024 33.6731C35.2262 32.981 35.8461 33.0839 36.3469 32.9977C37.7603 32.7529 39.1775 32.5325 40.5936 32.3028C41.9634 32.0813 43.3326 31.8581 44.7034 31.6419C44.8657 31.6166 45.0349 31.6376 45.201 31.6371C44.9449 32.5513 44.7433 33.4855 44.4183 34.3744C44.049 35.3825 43.6027 36.3668 43.1288 37.3317C42.419 38.7707 41.5408 40.1202 40.5127 41.3521C39.7225 42.3019 38.8417 43.1811 37.9592 44.0484C37.4708 44.5277 36.8962 44.9185 36.3603 45.3497L36.2213 45.2549L35.7216 44.8279L35.2046 43.6937C34.8516 42.3711 34.6589 41.0108 34.6305 39.6421L34.6402 39.4114L34.7108 38.412C34.734 38.0708 34.7653 37.7301 34.7798 37.3889C34.8316 36.162 34.8779 34.934 34.927 33.706Z" fill="#409433"/>
<path fill-rule="evenodd" clip-rule="evenodd" d="M34.9269 33.706C34.8784 34.934 34.8321 36.1625 34.7798 37.3905C34.7652 37.7323 34.7345 38.0729 34.7108 38.4136L34.396 38.5328C33.6963 36.473 32.996 34.4348 32.3114 32.3918C31.1788 29.0113 30.0603 25.626 28.9293 22.2445C28.0161 19.5154 27.0964 16.7884 26.1704 14.0636C26.1267 13.9364 26.0028 13.8362 25.9165 13.7235L27.9326 10.0164C28.0021 10.1366 28.0932 10.2492 28.1369 10.3786C29.0695 13.1386 30.0004 15.8991 30.9233 18.6624C32.1243 22.2579 33.3173 25.8551 34.5172 29.4512C34.5652 29.5946 34.6439 29.7272 34.7194 29.8884L34.9954 29.5671L34.9269 33.706Z" fill="#4FAA41"/>
<path fill-rule="evenodd" clip-rule="evenodd" d="M25.916 13.7235C26.0028 13.8362 26.1268 13.9364 26.1699 14.0637C27.096 16.7884 28.0157 19.5154 28.9288 22.2445C30.0598 25.626 31.1783 29.0113 32.3109 32.3918C32.9955 34.4348 33.6958 36.4725 34.3955 38.5328L34.7103 38.4137L34.6397 39.4131L34.5755 39.6433C34.4661 40.737 34.3739 41.8329 34.2402 42.9245C34.1734 43.4717 34.0305 44.0086 33.9222 44.5498C33.8408 44.4317 33.7265 44.3245 33.6823 44.1935C31.4306 37.4827 29.1865 30.7692 26.9392 24.0573C26.2241 21.9213 25.5047 19.7868 24.7808 17.6538C24.7441 17.5455 24.6406 17.4603 24.5684 17.3643L25.916 13.7235Z" fill="#4AA73C"/>
<path fill-rule="evenodd" clip-rule="evenodd" d="M34.9948 29.5671L34.7188 29.8883C34.6433 29.7272 34.5646 29.5946 34.5167 29.4512C33.3167 25.8551 32.1238 22.2579 30.9227 18.6624C29.9988 15.8995 29.07 13.1382 28.1363 10.3786C28.0926 10.2492 28.0015 10.1366 27.932 10.0164L30.4252 6.73669C30.5039 6.84127 30.616 6.93453 30.6564 7.05259C31.3482 9.07946 32.035 11.108 32.7167 13.1381C33.3539 15.0345 33.9814 16.9331 34.6261 18.8262C34.6692 18.9529 34.8196 19.0424 34.9199 19.1502L34.9253 19.5804L34.9948 29.5671Z" fill="#57AE47"/>
<path fill-rule="evenodd" clip-rule="evenodd" d="M34.9199 19.1502C34.8191 19.043 34.6692 18.9535 34.6261 18.8263C33.9819 16.9331 33.3539 15.0345 32.7167 13.1381C32.0348 11.1079 31.348 9.07945 30.6564 7.0526C30.616 6.93454 30.5039 6.84128 30.4252 6.73671C31.2359 5.94267 32.0213 5.12006 32.865 4.36268C33.6148 3.68993 34.2175 2.96866 34.2455 1.90509L34.3048 1.69324L34.5183 2.23122C34.5129 2.50291 34.4886 2.77567 34.5064 3.04628C34.5371 3.51689 34.6131 3.98533 34.6342 4.45593C34.6735 5.33191 34.6924 6.2095 34.7102 7.08656C34.7387 8.49782 34.7646 9.90963 34.7819 11.3214L34.8557 18.0888C34.8611 18.443 34.8983 18.7966 34.9199 19.1502Z" fill="#60B24F"/>
<path fill-rule="evenodd" clip-rule="evenodd" d="M33.9227 44.5492C34.031 44.0079 34.1739 43.471 34.2407 42.9239C34.3744 41.8328 34.4666 40.7364 34.576 39.6426L34.6035 39.6383L34.6305 39.6432C34.6589 41.0118 34.8516 42.3721 35.2046 43.6948C35.1318 43.7907 35.0299 43.8753 34.9911 43.9832C34.6919 44.8273 34.4095 45.6785 34.1087 46.5221C34.0677 46.6375 33.9523 46.7275 33.872 46.8283L33.5642 45.7718L33.9227 44.5492Z" fill="#A9AA88"/>
<path fill-rule="evenodd" clip-rule="evenodd" d="M33.8719 46.8289C33.9523 46.7275 34.0676 46.6381 34.1086 46.5227C34.4094 45.6791 34.6919 44.8279 34.991 43.9837C35.0293 43.8759 35.1317 43.7913 35.2045 43.6953L35.7215 44.8295C35.6196 44.974 35.4784 45.105 35.4218 45.2661L34.432 48.1728C34.3911 48.2897 34.2525 48.3717 34.1587 48.4703L33.8719 46.8289Z" fill="#B6B598"/>
<path fill-rule="evenodd" clip-rule="evenodd" d="M34.1588 48.4698C34.2521 48.3712 34.3911 48.2892 34.4321 48.1722L35.4218 45.2656C35.4779 45.1044 35.6197 44.9734 35.7216 44.829L36.2218 45.2554C35.9803 45.4942 35.8461 45.7702 35.9269 46.119L35.7749 46.6165C35.7059 46.7017 35.6057 46.7761 35.5717 46.8736C35.2262 47.8634 34.8968 48.8585 34.5486 49.8477C34.5044 49.9727 34.382 50.0714 34.2963 50.1824L34.1588 48.4698Z" fill="#C2C1A7"/>
<path fill-rule="evenodd" clip-rule="evenodd" d="M34.2957 50.1819C34.382 50.0708 34.5043 49.9722 34.548 49.8471C34.8962 48.8579 35.2261 47.8628 35.5711 46.8731C35.6051 46.7755 35.7054 46.7017 35.7744 46.616L35.5647 48.8994C35.5086 48.9641 35.4277 49.0207 35.4008 49.0957L34.7032 51.0945C34.6542 51.2309 34.5604 51.3527 34.4871 51.4805C34.4218 51.3953 34.3054 51.3128 34.3 51.2244C34.2795 50.8783 34.2941 50.5296 34.2957 50.1819Z" fill="#CECDB7"/>
<path fill-rule="evenodd" clip-rule="evenodd" d="M34.4875 51.4811C34.5609 51.3533 34.6547 51.2315 34.7037 51.0951L35.4013 49.0962C35.4282 49.0208 35.5096 48.9647 35.5651 48.9L35.5705 50.3986L35.0687 51.6854L34.4875 51.4811Z" fill="#DBDAC7"/>
<path fill-rule="evenodd" clip-rule="evenodd" d="M35.0687 51.6853L35.5706 50.3986L35.6741 51.9209L35.0687 51.6853Z" fill="#EBE9DC"/>
<path fill-rule="evenodd" clip-rule="evenodd" d="M35.9263 46.1189C35.846 45.7707 35.9797 45.4947 36.2212 45.2554L36.3603 45.3502L35.9263 46.1189Z" fill="#CECDB7"/>
<path fill-rule="evenodd" clip-rule="evenodd" d="M34.6305 39.6437L34.6035 39.6388L34.576 39.6431L34.6402 39.413L34.6305 39.6437Z" fill="#4FAA41"/>
</svg>
