<svg width="75" height="67" viewBox="0 0 75 67" fill="none" xmlns="http://www.w3.org/2000/svg">
<path d="M22.249 44.5079L24.522 54.1034C25.0327 56.282 25.2456 57.8029 25.1603 58.6697C26.4035 54.3379 27.2721 49.6173 27.7662 44.5079H30.4993C29.324 52.8261 27.7742 58.8706 25.8501 62.6414C24.3511 65.5472 22.7089 67 20.9206 67C20.4438 67 19.856 66.8126 19.1585 66.4405V64.4354C19.4993 64.5004 19.8991 64.5351 20.3589 64.5351C21.193 64.5349 21.8658 64.2345 22.3771 63.6339C22.9896 62.9023 23.2962 62.0802 23.2962 61.1688C23.2962 60.5466 23.0571 59.2696 22.5811 57.3378L19.4141 44.5079H22.249ZM4.85312 38.6102L9.01632 55.1369H9.04203L13.2308 38.6102H16.6531C17.4025 46.8063 17.8451 54.3054 17.9809 61.1029H15.0956C14.9939 54.7488 14.7131 48.7734 14.253 43.1766H14.2279L9.83421 61.1029H7.63692L3.26979 43.1766H3.24408C2.92028 48.5517 2.71596 54.5271 2.63114 61.1029H0C0.170034 53.1052 0.595557 45.6084 1.27657 38.6102H4.85312Z" fill="#00758F"/>
<path d="M51.2256 38.0427C55.664 38.0427 57.8833 41.797 57.8833 49.302C57.8833 53.3803 57.2159 56.4609 55.8823 58.542C55.642 58.9223 55.3763 59.2509 55.0966 59.5553L58.2376 61.6115L58.2345 61.6113L57.1193 64.1611L53.0289 61.0012C52.3508 61.267 51.6051 61.3999 50.792 61.3999C48.6126 61.3999 46.9848 60.5589 45.9085 58.8792C44.7271 57.021 44.1367 54.0957 44.1367 50.1083C44.1367 46.053 44.803 42.9841 46.137 40.9003C47.3519 38.9942 49.0484 38.0427 51.2256 38.0427ZM37.6339 38.0754C39.2202 38.0754 40.6627 38.6375 41.9619 39.7575L41.302 41.7044C40.1902 41.0788 39.0941 40.7646 38.0132 40.7646C37.1362 40.7646 36.4604 41.0441 35.9893 41.6065C35.5155 42.1639 35.2225 42.8812 35.2225 43.7556C35.2225 45.0994 35.9455 46.2646 37.2805 47.2491C37.7179 47.5656 38.1537 47.8858 38.588 48.2096L38.6876 48.2838L38.7376 48.321L38.8373 48.3952L38.8871 48.4324L38.9867 48.5068C39.9973 49.261 40.9482 49.981 40.9482 49.981C42.283 51.2356 42.9484 52.5732 42.9484 54.7762C42.9484 56.7001 42.4159 58.2794 41.3544 59.5152C40.2922 60.7454 38.8651 61.3623 37.078 61.3623C35.4065 61.3623 33.7866 60.6523 32.2175 59.2442L32.9515 57.2955C34.3019 58.1916 35.5238 58.6392 36.6211 58.6392C37.6501 58.6392 38.4557 58.335 39.0384 57.7343C39.62 57.1291 39.9685 56.2851 39.9685 55.215C39.9685 53.868 39.2608 52.7165 37.9626 51.7506C37.5562 51.4534 37.1511 51.1533 36.7472 50.8503L36.6477 50.7757C36.465 50.6391 36.281 50.5007 36.1007 50.3651L36.003 50.2915C35.1264 49.6314 34.3685 49.0546 34.3685 49.0546C33.0707 47.7977 32.4199 46.4492 32.4199 44.2272C32.4199 42.3895 32.9052 40.9041 33.8744 39.7742C34.8459 38.6417 36.0991 38.0754 37.6339 38.0754ZM63.0995 38.3791V58.2737H68.4907V61.0642H60.3652V38.3793L63.0995 38.3791ZM71.4864 58.2823V58.7538H70.8937V61.0617H70.4405V58.7538H69.8248V58.2823H71.4864ZM72.5809 58.2823L73.15 60.1769L73.6728 58.2823H74.3152V61.0617H73.8881V58.9465L73.293 61.0617H72.9851L72.3891 58.9465H72.3662V61.0617H71.9621V58.2823H72.5809ZM50.9464 40.8325C48.3309 40.8325 47.0224 43.6905 47.0224 49.4027C47.0224 52.6747 47.3692 55.0474 48.0613 56.5263C48.7024 57.8949 49.7064 58.5779 51.0736 58.5779C53.6891 58.5779 54.9974 55.6976 54.9974 49.9398C54.9974 46.7135 54.6507 44.3612 53.9594 42.8816C53.3176 41.516 52.314 40.8325 50.9466 40.8325" fill="#F29111"/>
<path d="M43.9467 1.41223C44.8184 -1.42376 47.8665 0.723936 49.0493 1.71459C49.3392 1.96244 49.6717 2.48608 50.0041 2.67963C50.5226 2.70659 51.0407 2.76032 51.5601 2.78901C52.5344 3.09214 53.447 3.3398 54.2147 3.91871C57.7824 6.70059 60.1049 9.53543 62.2423 14.2179C62.6991 15.2097 62.9273 16.283 63.3004 17.3563C63.8182 18.9561 64.4 20.6354 65.001 22.1481C65.2701 22.8653 65.4783 23.6628 65.852 24.2685C65.9978 24.5454 66.4122 24.6271 66.66 24.7925C67.3448 25.2618 68.1744 25.6181 68.8185 26.1689C70.0213 27.1619 71.1842 28.3451 72.2414 29.5565C72.6354 30.0241 72.9039 30.686 73.2793 31.1805V31.4301C72.9461 31.5655 72.614 31.7042 72.2816 31.8153C71.5557 32.0622 70.9126 32.0063 70.2083 32.2534C69.7731 32.4206 69.2328 32.6411 68.7763 32.6971L68.8185 32.7534C69.087 33.7692 70.5398 34.5954 71.2043 35.203C72.0112 35.9741 72.759 36.9093 73.3609 37.9834C73.5688 38.2574 73.7766 38.5068 73.9835 38.7801C74.1281 39.057 74.1688 39.4152 74.3151 39.6621V39.7457C74.1531 39.67 74.0366 39.5256 73.9262 39.3746L73.8603 39.2835C73.7944 39.193 73.7279 39.104 73.6521 39.0306C73.1942 38.6166 72.7395 38.1213 72.2816 37.7363C71.4944 37.0749 70.5814 36.6911 69.7731 36.0273C69.3161 35.6419 68.8805 35.203 68.4448 34.762C68.0499 34.3755 67.615 33.6333 67.3669 33.0825C67.2207 32.7782 67.2006 32.4206 67.0336 32.2004C67.0635 31.8328 67.3179 31.7236 67.5746 31.6339L67.6336 31.6133C67.7222 31.5828 67.8089 31.5524 67.8845 31.5122C68.9629 30.9059 70.2486 30.686 71.9088 30.741C71.8463 30.1891 70.8089 29.5014 70.4777 29.1709C69.813 28.5365 69.1091 27.8746 68.404 27.2973C68.0303 26.9949 67.3864 26.7742 66.9724 26.5271C66.4123 26.224 65.1673 25.9211 64.8569 25.3437C64.3296 24.4335 63.9509 23.3479 63.5831 22.2514L63.4831 21.9521L63.3827 21.653C62.9481 20.3325 62.4082 18.9557 61.9725 17.6035C61.7447 16.9439 61.6402 16.365 61.3907 15.7324C59.877 11.8503 57.6365 8.60004 54.9201 6.31426C54.0275 5.57051 53.0321 4.88221 51.9334 4.41442C51.3107 4.16541 50.5633 4.30311 49.8999 4.11207H49.4633C49.0906 3.97302 48.7795 3.44996 48.4887 3.17418C47.8465 2.59682 47.2033 2.20914 46.4353 1.79721C46.1662 1.63197 45.3978 1.24719 45.1296 1.55012C44.9635 1.60539 44.8792 1.6884 44.8384 1.9091C44.6731 2.23842 44.8184 2.73451 44.9213 3.03822C45.2328 3.91833 45.668 4.44139 46.0631 5.18514C46.4145 5.84475 46.851 6.5885 47.1002 7.30569C47.6378 8.84732 47.8881 10.5554 48.3863 12.0968C48.571 12.6765 48.8633 13.3361 49.1322 13.8589C49.3601 14.274 49.7745 14.574 49.8999 15.0994C50.1498 15.6502 49.5258 17.4676 49.3814 18.0447C48.841 20.3032 48.9457 23.4425 49.568 25.4001L49.6011 25.5033L49.6343 25.6079C49.8615 26.3249 50.1047 27.097 50.7088 27.2974C50.7504 27.2428 50.7088 27.2715 50.7913 27.2428C50.9374 25.7275 50.9786 24.2683 51.3731 23.0827C51.601 22.3415 52.0561 21.8175 52.3681 21.2124C52.5761 21.3772 52.5761 21.8743 52.7001 22.2032C52.97 23.0564 53.2599 23.9917 53.5927 24.8474C54.2758 26.6095 55.0444 28.318 55.9152 29.8594C56.2068 30.41 56.6207 31.0161 56.9939 31.512C57.1601 31.704 57.3463 31.8149 57.4713 32.062H57.512V32.1452C56.8897 31.8415 56.4953 30.9891 55.999 30.4915C55.0646 29.5561 53.9456 28.1514 53.3015 26.8035C53.0321 26.0297 52.7409 25.288 52.4506 24.5181V24.4624C52.3265 24.6824 52.3681 24.9007 52.306 25.2335C52.0366 26.6095 52.2441 28.1793 51.3107 28.6742C50.2526 29.2539 49.4634 27.7389 49.1322 27.0504C48.0739 24.7652 47.784 20.91 48.5303 17.798C48.6961 17.1092 48.7187 16.283 49.0081 15.733C48.9456 15.2357 48.6561 15.0998 48.4887 14.7951C48.1984 14.2743 47.9498 13.6677 47.7224 13.0894C47.2858 11.9597 46.9751 10.6099 46.6436 9.3983C46.4979 8.90356 46.4561 8.40688 46.3108 7.93852C46.063 7.22365 45.6061 6.50646 45.2536 5.87402C44.7764 4.96502 43.3864 3.20326 43.9467 1.41223ZM50.7499 6.80747C50.8054 6.88104 50.8723 6.94536 50.9415 7.00872L51.025 7.0846C51.1363 7.18667 51.2441 7.29413 51.3101 7.4405C51.4148 7.63424 51.4343 7.82547 51.5597 8.0196C51.5597 8.68151 51.4148 9.12156 51.1223 9.3958C51.1223 9.3958 51.1024 9.42469 51.0819 9.45165C50.9161 9.01044 50.7707 8.57154 50.6038 8.13072C50.3981 7.74593 50.1073 7.44069 49.9398 7.00102H49.8995V6.94575C50.1498 6.8639 50.3981 6.80747 50.7499 6.80747Z" fill="#00758F"/>
</svg>
