<svg width="70" height="20" viewBox="0 0 70 20" fill="none" xmlns="http://www.w3.org/2000/svg">
<path d="M58.7266 0.00833156V3.19757H53.8899V19.9764H51.4713V3.19777H46.5339V0.00833156H58.7266ZM59.2703 18.0742C59.4407 18.0742 59.5897 18.1611 59.7159 18.335C59.8438 18.5088 59.9076 18.7171 59.9093 18.9597C59.9089 19.1189 59.8777 19.2748 59.8191 19.4106C59.7614 19.5444 59.6808 19.6554 59.5848 19.7332C59.4898 19.8139 59.381 19.8558 59.2703 19.8545C59.0931 19.8545 58.9425 19.7675 58.8164 19.5937C58.6902 19.4197 58.6277 19.2091 58.6294 18.9597C58.6278 18.7171 58.6902 18.5089 58.8164 18.335C58.9425 18.1611 59.0931 18.0742 59.2703 18.0742ZM11.3362 19.9764L2.41855 4.26808V19.9682H0V0H3.02299L14.2894 19.827L14.2896 3.19777L14.2886 0.00833156H26.4812V3.19757H16.708V8.32826H24.5677V11.5177H16.708V16.7871H26.4813V19.9764H11.3362ZM34.2323 11.4873L35.8173 14.2799L32.5696 20H29.3956L34.2323 11.4873ZM32.5696 0.0166631L36.6615 7.21862L40.7407 0.0387514L43.9057 0.0319699L38.2461 10.0076L43.9149 19.9847H40.7407L29.4046 0.0166631H32.5696ZM63.398 11.4425H64.4696V17.294C64.4681 17.8317 64.3859 18.2915 64.2255 18.6784C64.0633 19.0649 63.8386 19.3602 63.5504 19.5685C63.2636 19.7743 62.9277 19.8797 62.5458 19.8797C62.1968 19.8797 61.884 19.7905 61.6053 19.6166C61.3267 19.4426 61.1056 19.1818 60.9433 18.8384C60.7793 18.4953 60.699 18.0673 60.699 17.5548H61.7725C61.7742 17.779 61.8101 17.9733 61.8789 18.1361C61.9466 18.2967 62.0456 18.4262 62.1641 18.5088C62.287 18.596 62.4278 18.6396 62.5867 18.6394C62.759 18.6394 62.9063 18.5891 63.026 18.486C63.1456 18.3852 63.2373 18.2342 63.3013 18.033C63.3635 17.8338 63.3963 17.5868 63.398 17.2938V11.4425ZM68.879 13.7308C68.8531 13.3762 68.7382 13.0991 68.5383 12.9025C68.3367 12.7033 68.0762 12.6051 67.7566 12.6051C67.5324 12.6051 67.3389 12.6531 67.1783 12.7469C67.0178 12.843 66.8932 12.9711 66.8079 13.1336C66.7229 13.296 66.6802 13.4814 66.6768 13.6897C66.6768 13.8635 66.7063 14.0146 66.7636 14.1404C66.823 14.2723 66.9032 14.3828 66.9979 14.4632C67.1008 14.5549 67.2108 14.6293 67.3258 14.685C67.447 14.7445 67.5682 14.7948 67.6895 14.8362L68.2482 15.0307C68.4729 15.104 68.6908 15.2022 68.8989 15.3281C69.1068 15.4517 69.2953 15.6097 69.4608 15.7995C69.6264 15.9894 69.7575 16.2182 69.8541 16.486C69.9508 16.7538 70 17.0673 70 17.4288C70 17.9161 69.9115 18.3442 69.7328 18.7148C69.5543 19.0833 69.297 19.3716 68.9594 19.5799C68.6235 19.7859 68.217 19.8911 67.7387 19.8911C67.2766 19.8911 66.8735 19.7904 66.5342 19.589C66.1935 19.3901 65.928 19.0969 65.7362 18.7125C65.5443 18.3281 65.4413 17.859 65.4265 17.3076H66.4885C66.5031 17.5959 66.5688 17.8361 66.6802 18.0307C66.7931 18.2229 66.9406 18.3647 67.121 18.4608C67.3028 18.5548 67.506 18.6028 67.7305 18.6028C67.9648 18.6028 68.1712 18.5524 68.3498 18.454C68.5269 18.3556 68.666 18.2184 68.7661 18.0398C68.8677 17.8634 68.9186 17.6553 68.9202 17.4174C68.9186 17.2 68.8725 17.0192 68.784 16.8772C68.6939 16.7354 68.5693 16.6164 68.4104 16.5203C68.25 16.4242 68.0631 16.3372 67.8501 16.2618L67.1717 16.0193C66.6817 15.8429 66.2934 15.5754 66.0099 15.2159C65.7248 14.8567 65.5838 14.3808 65.5838 13.7835C65.5838 13.2939 65.6789 12.8635 65.8707 12.495C66.0607 12.1269 66.3213 11.8407 66.6507 11.6371C66.9815 11.4311 67.3553 11.3303 67.7713 11.3303C68.1942 11.3303 68.5645 11.4311 68.8841 11.6371C69.2035 11.8407 69.4544 12.1244 69.6361 12.4859C69.818 12.8476 69.9132 13.2617 69.9181 13.7308H68.879Z" fill="black"/>
</svg>
