<svg width="68" height="45" viewBox="0 0 68 45" fill="none" xmlns="http://www.w3.org/2000/svg">
<path d="M33.6309 44.3832C33.4005 44.3832 33.1853 44.3177 32.9854 44.203L30.9412 42.9088C30.6337 42.7285 30.7874 42.663 30.8797 42.6302C31.2947 42.4828 31.3715 42.4499 31.8019 42.1879C31.848 42.155 31.9096 42.1715 31.9556 42.2042L33.5235 43.2036C33.5849 43.2364 33.6618 43.2364 33.7078 43.2036L39.8408 39.419C39.9022 39.3863 39.9331 39.3206 39.9331 39.2388V31.686C39.9331 31.6039 39.9022 31.5386 39.8408 31.5057L33.7078 27.7375C33.6464 27.7046 33.5695 27.7046 33.5235 27.7375L27.3905 31.5057C27.3291 31.5385 27.2982 31.6204 27.2982 31.6859V39.2387C27.2982 39.3043 27.3291 39.3861 27.3905 39.419L29.066 40.4511C29.9728 40.9426 30.5415 40.3692 30.5415 39.7958V32.3412C30.5415 32.243 30.6184 32.1446 30.726 32.1446H31.5098C31.6021 32.1446 31.6943 32.2265 31.6943 32.3412V39.7958C31.6943 41.09 31.0333 41.8437 29.8806 41.8437C29.5271 41.8437 29.2504 41.8438 28.4664 41.4341L26.8526 40.4511C26.4529 40.2055 26.207 39.7466 26.207 39.2551V31.7023C26.207 31.2109 26.4529 30.752 26.8526 30.5063L32.9854 26.7217C33.3697 26.4923 33.8924 26.4923 34.2766 26.7217L40.4094 30.5063C40.8091 30.752 41.0551 31.2109 41.0551 31.7023V39.2551C41.0551 39.7466 40.8091 40.2055 40.4094 40.4511L34.2766 44.2358C34.0767 44.3341 33.8461 44.3832 33.6309 44.3832ZM35.5217 39.1896C32.8319 39.1896 32.2785 37.879 32.2785 36.7649C32.2785 36.6665 32.3554 36.5683 32.463 36.5683H33.2623C33.3544 36.5683 33.4313 36.6338 33.4313 36.7321C33.5543 37.6004 33.9078 38.0264 35.5371 38.0264C36.8282 38.0264 37.3817 37.7151 37.3817 36.9778C37.3817 36.5518 37.2279 36.2407 35.2143 36.0276C33.5389 35.8473 32.4937 35.4542 32.4937 34.0288C32.4937 32.7017 33.539 31.9152 35.2912 31.9152C37.2586 31.9152 38.227 32.6362 38.35 34.2089C38.35 34.2581 38.3347 34.3073 38.3039 34.3564C38.273 34.3892 38.227 34.4219 38.1809 34.4219H37.3816C37.3047 34.4219 37.2279 34.3564 37.2126 34.2745C37.0281 33.3735 36.5516 33.0785 35.2912 33.0785C33.8771 33.0785 33.7079 33.6029 33.7079 33.996C33.7079 34.4711 33.9078 34.6185 35.8137 34.8807C37.7044 35.1429 38.5959 35.5197 38.5959 36.9286C38.5805 38.3704 37.4739 39.1896 35.5217 39.1896Z" fill="#539E43"/>
<path d="M14.6022 14.8437C14.6022 14.5488 14.4484 14.2701 14.2025 14.1227L7.68537 10.1252C7.57765 10.0595 7.45476 10.0268 7.33188 10.0103H7.2703C7.14742 10.0103 7.0244 10.0595 6.91681 10.1252L0.399642 14.1227C0.153606 14.2701 0 14.5487 0 14.8437L0.0154271 25.5912C0.0154271 25.7387 0.0922968 25.8861 0.215182 25.9517C0.3382 26.0337 0.491806 26.0337 0.59953 25.9517L4.47294 23.5925C4.71884 23.445 4.87258 23.1665 4.87258 22.8716V17.8418C4.87258 17.547 5.02619 17.2684 5.27222 17.121L6.91681 16.1052C7.03983 16.0232 7.17814 15.9903 7.31645 15.9903C7.45476 15.9903 7.59307 16.0232 7.7008 16.1052L9.34538 17.121C9.59142 17.2684 9.74502 17.5468 9.74502 17.8418V22.8716C9.74502 23.1665 9.89876 23.445 10.1447 23.5925L14.0181 25.9517C14.0779 25.9919 14.1472 26.0132 14.2179 26.0132C14.2886 26.0132 14.3579 25.9919 14.4177 25.9517C14.5407 25.8861 14.6176 25.7387 14.6176 25.5912L14.6022 14.8437ZM45.9276 0.049225C45.8048 -0.0164083 45.651 -0.0164083 45.5433 0.049225C45.4204 0.13116 45.3435 0.262144 45.3435 0.409571V11.059C45.3435 11.1573 45.2975 11.2555 45.2052 11.3212C45.113 11.3702 45.0208 11.3702 44.9286 11.3212L43.2993 10.3218C43.1798 10.2493 43.0448 10.2112 42.9073 10.2112C42.7699 10.2112 42.6348 10.2493 42.5153 10.3218L35.9981 14.3358C35.7522 14.4832 35.5985 14.7617 35.5985 15.0566V23.0681C35.5985 23.363 35.7522 23.6417 35.9981 23.7891L42.5153 27.8031C42.6348 27.8755 42.7699 27.9136 42.9073 27.9136C43.0448 27.9136 43.1798 27.8755 43.2993 27.8031L49.8165 23.7891C50.0624 23.6417 50.2161 23.3631 50.2161 23.0681V3.09657C50.2161 2.78527 50.0624 2.50686 49.8165 2.35929L45.9276 0.049225ZM45.3282 20.4304C45.3282 20.5124 45.2975 20.5779 45.2359 20.6106L43.0073 21.9868C42.9761 22.003 42.942 22.0115 42.9073 22.0115C42.8727 22.0115 42.8385 22.003 42.8074 21.9868L40.5787 20.6106C40.5171 20.5779 40.4864 20.4959 40.4864 20.4304V17.678C40.4864 17.596 40.5171 17.5305 40.5787 17.4978L42.8074 16.1215C42.8385 16.1052 42.8727 16.0968 42.9073 16.0968C42.942 16.0968 42.9761 16.1052 43.0073 16.1215L45.2359 17.4978C45.2975 17.5304 45.3282 17.6125 45.3282 17.678V20.4304ZM67.6157 17.6125C67.8617 17.465 68 17.1865 68 16.8915V14.9419C68 14.6471 67.8463 14.3685 67.6157 14.2211L61.1446 10.2235C61.0252 10.1511 60.8901 10.113 60.7526 10.113C60.6152 10.113 60.4801 10.1511 60.3606 10.2235L53.8435 14.2374C53.5974 14.3848 53.4438 14.6634 53.4438 14.9582V22.9699C53.4438 23.2647 53.5976 23.5433 53.8435 23.6907L60.3145 27.6228C60.5605 27.7702 60.8526 27.7702 61.0832 27.6228L65.0026 25.2965C65.1256 25.2309 65.2025 25.0835 65.2025 24.936C65.2025 24.7886 65.1256 24.6412 65.0026 24.5756L58.4547 20.5616C58.3317 20.4796 58.2548 20.3487 58.2548 20.2012V17.6945C58.2548 17.5471 58.3317 17.3997 58.4547 17.3341L60.499 16.0889C60.5588 16.0487 60.6281 16.0274 60.6988 16.0274C60.7695 16.0274 60.8388 16.0487 60.8986 16.0889L62.943 17.3341C63.066 17.416 63.1427 17.547 63.1427 17.6945V19.6606C63.1427 19.808 63.2196 19.9554 63.3426 20.0209C63.4024 20.0611 63.4717 20.0824 63.5424 20.0824C63.6131 20.0824 63.6824 20.0611 63.7422 20.0209L67.6157 17.6125Z" fill="#333333"/>
<path d="M60.6527 17.2355C60.6756 17.2195 60.7023 17.2109 60.7296 17.2109C60.7569 17.2109 60.7837 17.2195 60.8065 17.2355L62.0516 18.0055C62.0976 18.0384 62.1283 18.0875 62.1283 18.153V19.6932C62.1283 19.7586 62.0977 19.8078 62.0516 19.8406L60.8065 20.6106C60.7837 20.6266 60.7569 20.6352 60.7296 20.6352C60.7023 20.6352 60.6756 20.6266 60.6527 20.6106L59.4078 19.8406C59.3617 19.8078 59.3309 19.7586 59.3309 19.6932V18.1531C59.3309 18.0875 59.3615 18.0383 59.4078 18.0057L60.6527 17.2355Z" fill="#539E43"/>
<path d="M25.4999 10.2563C25.3805 10.1838 25.2454 10.1458 25.108 10.1458C24.9706 10.1458 24.8355 10.1838 24.7161 10.2563L18.2451 14.2372C17.999 14.3846 17.8607 14.6632 17.8607 14.9581V22.937C17.8607 23.2318 18.0145 23.5104 18.2451 23.6578L24.7161 27.639C24.8355 27.7115 24.9706 27.7496 25.108 27.7496C25.2454 27.7496 25.3805 27.7115 25.4999 27.639L31.9711 23.6578C32.217 23.5104 32.3554 23.2318 32.3554 22.937V14.9582C32.3554 14.6633 32.2016 14.3848 31.9711 14.2374L25.4999 10.2563Z" fill="url(#paint0_linear_249_207)"/>
<mask id="mask0_249_207" style="mask-type:luminance" maskUnits="userSpaceOnUse" x="17" y="10" width="16" height="18">
<path d="M25.4999 10.2563C25.3805 10.1838 25.2454 10.1458 25.108 10.1458C24.9706 10.1458 24.8355 10.1838 24.7161 10.2563L18.2451 14.2372C17.999 14.3846 17.8607 14.6632 17.8607 14.9581V22.937C17.8607 23.2318 18.0145 23.5104 18.2451 23.6578L24.7161 27.639C24.8355 27.7115 24.9706 27.7496 25.108 27.7496C25.2454 27.7496 25.3805 27.7115 25.4999 27.639L31.9711 23.6578C32.217 23.5104 32.3554 23.2318 32.3554 22.937V14.9582C32.3554 14.6633 32.2016 14.3848 31.9711 14.2374L25.4999 10.2563Z" fill="white"/>
</mask>
<g mask="url(#mask0_249_207)">
<path d="M31.9863 14.2373L25.4845 10.2563C25.4206 10.2218 25.3537 10.1944 25.2846 10.1743L17.9989 23.4779C18.0593 23.5564 18.1322 23.623 18.2142 23.6745L24.716 27.6558C24.9004 27.7704 25.1156 27.8032 25.3154 27.7376L32.1554 14.4014C32.1093 14.3359 32.0477 14.2864 31.9863 14.2373Z" fill="url(#paint1_linear_249_207)"/>
</g>
<mask id="mask1_249_207" style="mask-type:luminance" maskUnits="userSpaceOnUse" x="17" y="10" width="16" height="18">
<path d="M25.4999 10.2563C25.3805 10.1838 25.2454 10.1458 25.108 10.1458C24.9706 10.1458 24.8355 10.1838 24.7161 10.2563L18.2451 14.2372C17.999 14.3846 17.8607 14.6632 17.8607 14.9581V22.937C17.8607 23.2318 18.0145 23.5104 18.2451 23.6578L24.7161 27.639C24.8355 27.7115 24.9706 27.7496 25.108 27.7496C25.2454 27.7496 25.3805 27.7115 25.4999 27.639L31.9711 23.6578C32.217 23.5104 32.3554 23.2318 32.3554 22.937V14.9582C32.3554 14.6633 32.2016 14.3848 31.9711 14.2374L25.4999 10.2563Z" fill="white"/>
</mask>
<g mask="url(#mask1_249_207)">
<path fill-rule="evenodd" clip-rule="evenodd" d="M32.0018 23.658C32.1862 23.5434 32.3245 23.3467 32.3861 23.1338L25.2538 10.158C25.0694 10.1252 24.8695 10.1415 24.7006 10.2562L18.2449 14.2212L25.2077 27.754C25.309 27.7364 25.4074 27.7033 25.4997 27.6557L32.0018 23.658Z" fill="url(#paint2_linear_249_207)"/>
<path fill-rule="evenodd" clip-rule="evenodd" d="M32.0016 23.6581L25.5152 27.6393C25.4236 27.689 25.3249 27.7222 25.2231 27.7376L25.3462 27.9834L32.5396 23.5436V23.4452L32.3551 23.1174C32.3244 23.3468 32.1861 23.5434 32.0016 23.6581Z" fill="url(#paint3_linear_249_207)"/>
<path fill-rule="evenodd" clip-rule="evenodd" d="M32.0016 23.6581L25.5152 27.6393C25.4236 27.689 25.3249 27.7222 25.2231 27.7376L25.3462 27.9834L32.5396 23.5436V23.4452L32.3551 23.1174C32.3244 23.3468 32.1861 23.5434 32.0016 23.6581Z" fill="url(#paint4_linear_249_207)"/>
</g>
<defs>
<linearGradient id="paint0_linear_249_207" x1="1006.23" y1="317.983" x2="230.816" y2="1461.06" gradientUnits="userSpaceOnUse">
<stop stop-color="#41873F"/>
<stop offset="0.3288" stop-color="#418B3D"/>
<stop offset="0.6352" stop-color="#419637"/>
<stop offset="0.9319" stop-color="#3FA92D"/>
<stop offset="1" stop-color="#3FAE2A"/>
</linearGradient>
<linearGradient id="paint1_linear_249_207" x1="630.651" y1="980.968" x2="2456.9" y2="50.1039" gradientUnits="userSpaceOnUse">
<stop offset="0.1376" stop-color="#41873F"/>
<stop offset="0.4032" stop-color="#54A044"/>
<stop offset="0.7136" stop-color="#66B848"/>
<stop offset="0.9081" stop-color="#6CC04A"/>
</linearGradient>
<linearGradient id="paint2_linear_249_207" x1="-43.821" y1="890.635" x2="1453.57" y2="890.635" gradientUnits="userSpaceOnUse">
<stop offset="0.09192" stop-color="#6CC04A"/>
<stop offset="0.2864" stop-color="#66B848"/>
<stop offset="0.5968" stop-color="#54A044"/>
<stop offset="0.8624" stop-color="#41873F"/>
</linearGradient>
<linearGradient id="paint3_linear_249_207" x1="-734.671" y1="267.753" x2="762.699" y2="267.753" gradientUnits="userSpaceOnUse">
<stop offset="0.09192" stop-color="#6CC04A"/>
<stop offset="0.2864" stop-color="#66B848"/>
<stop offset="0.5968" stop-color="#54A044"/>
<stop offset="0.8624" stop-color="#41873F"/>
</linearGradient>
<linearGradient id="paint4_linear_249_207" x1="980.846" y1="-1003.93" x2="551.911" y2="1104.71" gradientUnits="userSpaceOnUse">
<stop stop-color="#41873F"/>
<stop offset="0.3288" stop-color="#418B3D"/>
<stop offset="0.6352" stop-color="#419637"/>
<stop offset="0.9319" stop-color="#3FA92D"/>
<stop offset="1" stop-color="#3FAE2A"/>
</linearGradient>
</defs>
</svg>
