<svg width="74" height="70" viewBox="0 0 74 70" fill="none" xmlns="http://www.w3.org/2000/svg">
<path d="M6.51968 65.4024C5.11859 65.4024 3.6951 64.7999 2.80161 63.6183V70H0V54.2473H2.53403L2.63394 55.9747C3.50331 54.6424 5.04796 53.9389 6.52025 53.9407C9.34369 53.9407 11.4264 56.4033 11.4264 59.671C11.4264 62.9387 9.34254 65.4048 6.51911 65.403L6.51968 65.4024ZM5.65204 56.1056C4.01609 56.1056 2.68103 57.4373 2.68103 59.674C2.68103 61.9106 4.00805 63.2423 5.65031 63.2423C7.29258 63.2423 8.61673 61.9106 8.61673 59.674C8.61673 57.4373 7.292 56.1056 5.65146 56.1056H5.65204ZM21.984 65.1036L21.8869 63.3702C21.0187 64.7019 19.4729 65.4054 18.0018 65.4054C15.1766 65.4054 13.0968 62.9422 13.0968 59.6752C13.0968 56.4093 15.1726 53.9455 18.0018 53.9473C19.4723 53.9473 21.0187 54.6562 21.8869 55.9819L21.9845 54.2491H24.5191V65.1048L21.984 65.1036ZM18.8711 56.1062C17.2357 56.1062 15.9018 57.4379 15.9018 59.6746C15.9018 61.9112 17.2283 63.2429 18.8706 63.2429C20.5128 63.2429 21.8393 61.9112 21.8393 59.6763C21.8393 57.4409 20.5128 56.1152 18.8706 56.1068L18.8711 56.1062ZM34.3165 65.1059V59.0942C34.3165 56.9837 33.6159 56.2796 32.3371 56.2796C31.0101 56.2796 29.5614 57.5348 29.5596 59.0428V65.0988H26.7609V54.2491H29.3271L29.4465 56.2604C30.1471 54.8779 31.7164 53.9485 33.3093 53.9485C36.0845 53.9485 37.1244 55.9598 37.1244 58.6489V65.1059H34.3165ZM47.3834 65.1072L47.2858 63.3732C46.4181 64.7049 44.8735 65.4078 43.4 65.4078C40.576 65.4078 38.4951 62.9452 38.4951 59.6787C38.4951 56.4123 40.5714 53.9503 43.4 53.9503C44.7994 53.9503 46.2246 54.554 47.1175 55.7351V50.0311H49.9174V65.1077L47.3834 65.1072ZM44.2711 56.1158C42.6289 56.1158 41.3007 57.4475 41.3007 59.6841C41.3007 61.9208 42.6271 63.2507 44.2694 63.2525C45.9117 63.2525 47.2381 61.9208 47.2381 59.6841C47.2381 57.4475 45.9117 56.1158 44.2711 56.1158ZM60.4394 65.1089L60.3435 63.3756C59.4741 64.7073 57.9283 65.4114 56.4572 65.4096C53.6326 65.4096 51.5522 62.947 51.5522 59.6811C51.5522 56.4146 53.6286 53.9515 56.4572 53.9527C57.9283 53.9527 59.4741 54.6622 60.3435 55.9879L60.4405 54.2545H62.9815V65.1089H60.4394ZM57.3266 56.1158C55.6849 56.1158 54.3578 57.4475 54.3578 59.6841C54.3578 61.9208 55.6849 63.2525 57.3266 63.2525C58.9682 63.2525 60.2953 61.9208 60.2953 59.6841C60.2953 57.4475 58.9688 56.1158 57.3266 56.1158ZM69.1796 65.4622C67.7063 65.4501 66.2633 65.0247 65.0027 64.2309L65.4609 62.2142C66.3062 62.742 67.5855 63.4216 69.1302 63.4216C70.2402 63.4216 71.0136 63.0696 71.0136 62.164C71.0136 61.3864 70.2172 61.1091 68.792 60.7576C66.235 60.179 65.3168 58.7726 65.318 57.2395C65.318 55.5372 66.5973 53.9234 69.4219 53.9234C71.1359 53.9234 72.6318 54.7034 72.9643 54.9036L72.5106 56.8253C71.5988 56.2529 70.5583 55.9406 69.4937 55.9197C68.359 55.9197 67.8032 56.3214 67.8032 56.9747C67.8032 57.7027 68.5278 58.0303 69.6384 58.3064C72.3889 58.9101 73.5 60.2412 73.5 61.6996C73.5 64.0307 71.8577 65.4622 69.1796 65.4622ZM30.1109 2.5H35.0842V13.2516H30.1109V2.5ZM30.1109 24.5842H35.0842V35.3352H30.1109V24.5842Z" fill="#130754"/>
<path d="M30 16.5H35V21.5H30V16.5Z" fill="#FFCA00"/>
<path d="M21.5 11.5H26.5239V47H21.5V11.5ZM37.4755 33.4674H42.5V44.1471H37.4755V33.4674ZM37.4755 11.5131H42.5V22.1927H37.4755V11.5131Z" fill="#130754"/>
<path d="M38 25.5H43V30.5H38V25.5Z" fill="#E70488"/>
<path d="M46 0H50.5V35.5H46V0Z" fill="#130754"/>
</svg>
