<svg width="40" height="37" viewBox="0 0 40 37" fill="none" xmlns="http://www.w3.org/2000/svg">
<path d="M8.04445 16.0128C11.2444 21.83 16.4 26.5783 22.6889 29.5589L27.5778 25.0367C28.1778 24.4817 29.0667 24.2967 29.8444 24.5433C32.3333 25.3039 35.0222 25.715 37.7778 25.715C39 25.715 40 26.64 40 27.7706V34.9444C40 36.075 39 37 37.7778 37C16.9111 37 0 21.3572 0 2.05556C0 0.925 1 0 2.22222 0H10C11.2222 0 12.2222 0.925 12.2222 2.05556C12.2222 4.625 12.6667 7.09167 13.4889 9.39389C13.7333 10.1133 13.5556 10.915 12.9333 11.4906L8.04445 16.0128Z" fill="white"/>
</svg>
