<svg width="78" height="78" viewBox="0 0 78 78" fill="none" xmlns="http://www.w3.org/2000/svg">
<path d="M0 39C0 50.3301 17.461 59.5158 39 59.5158C60.539 59.5158 78 50.3301 78 39C78 27.6698 60.5384 18.4841 39 18.4841C17.4616 18.4841 0 27.6698 0 39Z" fill="url(#paint0_radial_249_68)"/>
<path d="M39 57.9923C59.6974 57.9923 76.4766 49.4885 76.4766 39C76.4766 28.5102 59.6974 20.0076 39 20.0076C18.3026 20.0076 1.52344 28.5102 1.52344 39C1.52344 49.4885 18.3026 57.9923 39 57.9923Z" fill="#777BB3"/>
<path d="M21.1892 41.3547C22.8912 41.3547 24.1611 41.0408 24.9649 40.4223C25.7607 39.8093 26.3098 38.7484 26.598 37.2688C26.8661 35.8855 26.7638 34.9203 26.2933 34.3987C25.8131 33.8661 24.7742 33.5961 23.2056 33.5961H20.4854L18.9784 41.3547H21.1892ZM12.2929 50.9115C12.2305 50.9114 12.1689 50.8975 12.1125 50.8708C12.0561 50.8441 12.0063 50.8052 11.9667 50.757C11.9271 50.7088 11.8986 50.6524 11.8834 50.5918C11.8682 50.5313 11.8665 50.4682 11.8786 50.4069L15.8742 29.8478C15.8931 29.7517 15.9447 29.6651 16.0203 29.6028C16.0958 29.5405 16.1907 29.5063 16.2886 29.506H24.9015C27.6084 29.506 29.623 30.2409 30.8898 31.6906C32.1622 33.147 32.5559 35.1847 32.058 37.7447C31.8551 38.7874 31.5065 39.7557 31.0221 40.6234C30.5179 41.5161 29.8745 42.3225 29.116 43.0122C28.183 43.8848 27.127 44.5185 25.9795 44.8909C24.8509 45.2589 23.4006 45.4454 21.6712 45.4454H18.1832L17.1874 50.569C17.1686 50.6655 17.1169 50.7523 17.0411 50.8148C16.9653 50.8773 16.8701 50.9115 16.7718 50.9115H12.2929Z" fill="black"/>
<path d="M20.8345 34.0189H23.2056C25.0989 34.0189 25.7564 34.4345 25.9801 34.6826C26.35 35.0933 26.4207 35.9604 26.1818 37.1883C25.9143 38.5637 25.4182 39.5393 24.7071 40.0865C23.9795 40.6471 22.7949 40.9311 21.1892 40.9311H19.4914L20.8345 34.0189ZM24.9015 29.083H16.2892C16.0928 29.083 15.9025 29.1513 15.7509 29.2761C15.5992 29.401 15.4957 29.5746 15.458 29.7673L11.4623 50.327C11.4387 50.4495 11.4425 50.5757 11.4733 50.6965C11.5041 50.8174 11.5612 50.9299 11.6405 51.0262C11.7199 51.1224 11.8195 51.1999 11.9323 51.2532C12.045 51.3065 12.1682 51.3342 12.2929 51.3343H16.7718C16.9682 51.3341 17.1584 51.2657 17.3099 51.1408C17.4614 51.0159 17.5648 50.8421 17.6024 50.6494L18.5317 45.8682H21.6706C23.4451 45.8682 24.9393 45.6745 26.1111 45.293C27.3158 44.9018 28.4243 44.2382 29.4054 43.3204C30.1955 42.6011 30.8659 41.7604 31.3913 40.8299C31.8977 39.9238 32.2621 38.9122 32.473 37.8251C32.997 35.1298 32.5711 32.972 31.2079 31.412C29.8575 29.8661 27.7357 29.0824 24.9015 29.0824V29.083ZM18.4647 41.7769H21.1892C22.9949 41.7773 24.3396 41.4371 25.2232 40.7562C26.1068 40.0761 26.7036 38.9405 27.0136 37.3492C27.3093 35.8209 27.1742 34.7427 26.6083 34.1146C26.0416 33.4866 24.9074 33.1725 23.2056 33.1725H20.1368L18.4647 41.7769ZM24.9021 29.9276C27.4932 29.9276 29.3828 30.6077 30.5711 31.9678C31.7594 33.3279 32.1169 35.2263 31.6436 37.663C31.4478 38.6673 31.1177 39.585 30.6534 40.4162C30.1882 41.2482 29.5807 42.0093 28.8307 42.6995C27.937 43.5364 26.9433 44.1325 25.8497 44.488C24.7564 44.8439 23.3636 45.0216 21.6712 45.0212H17.8346L16.7724 50.4873H12.2935L16.2898 29.9276H24.9021Z" fill="white"/>
<path d="M42.3266 45.4453C42.2642 45.4454 42.2025 45.4316 42.146 45.405C42.0895 45.3784 42.0396 45.3397 41.9998 45.2915C41.9601 45.2433 41.9315 45.1869 41.9162 45.1264C41.9008 45.0658 41.8991 45.0026 41.911 44.9414L43.6782 35.8446C43.847 34.9793 43.8056 34.3589 43.5624 34.0957C43.4131 33.9354 42.9659 33.6667 41.6429 33.6667H38.44L36.2183 45.1034C36.1992 45.1998 36.1472 45.2864 36.0713 45.3487C35.9954 45.4109 35.9002 45.4449 35.8021 45.4447H31.3597C31.2973 45.4447 31.2357 45.431 31.1792 45.4044C31.1227 45.3779 31.0728 45.3392 31.033 45.2911C30.9933 45.243 30.9646 45.1867 30.9491 45.1262C30.9337 45.0658 30.9317 45.0026 30.9435 44.9414L34.9398 24.3817C34.9587 24.2853 35.0105 24.1986 35.0863 24.1362C35.1621 24.0739 35.2572 24.0398 35.3554 24.0398H39.7977C39.8601 24.0398 39.9218 24.0535 39.9782 24.0801C40.0347 24.1066 40.0846 24.1453 40.1244 24.1934C40.1642 24.2415 40.1928 24.2978 40.2083 24.3583C40.2238 24.4187 40.2257 24.4819 40.2139 24.5431L39.2499 29.5059H42.6947C45.3193 29.5059 47.0986 29.9678 48.1352 30.9202C49.1912 31.891 49.5215 33.4431 49.1151 35.535L47.2559 45.1034C47.2368 45.1996 47.185 45.2863 47.1092 45.3485C47.0334 45.4107 46.9383 45.4447 46.8403 45.4447L42.3266 45.4453Z" fill="black"/>
<path d="M39.7983 23.6163H35.3553C35.1589 23.6164 34.9685 23.6847 34.8169 23.8097C34.6652 23.9346 34.5618 24.1084 34.5242 24.3013L30.5285 44.8604C30.5048 44.9829 30.5084 45.1091 30.5392 45.23C30.57 45.351 30.6271 45.4636 30.7064 45.5599C30.7858 45.6562 30.8854 45.7338 30.9982 45.7871C31.1111 45.8404 31.2343 45.8681 31.3591 45.8683H35.802C35.9985 45.8682 36.1889 45.7999 36.3405 45.6749C36.4921 45.55 36.5956 45.3762 36.6332 45.1833L38.7886 34.0897H41.6417C42.9628 34.0897 43.2407 34.3718 43.251 34.3846C43.3314 34.4699 43.4369 34.8691 43.2626 35.7642L41.4954 44.8604C41.4717 44.9829 41.4754 45.1092 41.5062 45.2302C41.537 45.3512 41.5941 45.4638 41.6735 45.5601C41.753 45.6565 41.8527 45.734 41.9656 45.7873C42.0785 45.8406 42.2018 45.8682 42.3266 45.8683H46.8408C47.0372 45.8681 47.2274 45.7997 47.3789 45.6747C47.5304 45.5498 47.6338 45.3761 47.6714 45.1833L49.5306 35.6161C49.9663 33.37 49.5934 31.6857 48.4216 30.6089C47.3027 29.5815 45.4295 29.0824 42.6947 29.0824H39.7636L40.6295 24.6248C40.6533 24.5022 40.6497 24.3759 40.6189 24.2548C40.5882 24.1338 40.5311 24.021 40.4516 23.9247C40.3722 23.8283 40.2724 23.7506 40.1595 23.6973C40.0465 23.644 39.9232 23.6164 39.7983 23.6163ZM39.7983 24.4634L38.7362 29.9282H42.6947C45.1854 29.9282 46.9032 30.3629 47.8481 31.2323C48.7939 32.1009 49.0779 33.5085 48.7 35.4553L46.8402 45.0219H42.3266L44.0944 35.9251C44.2955 34.8904 44.2213 34.1847 43.872 33.8081C43.5226 33.4319 42.7796 33.2438 41.6429 33.2438H38.0908L35.802 45.0212H31.3584L35.3547 24.4615H39.7983V24.4634Z" fill="white"/>
<path d="M56.1454 41.3547C57.8474 41.3547 59.1179 41.0408 59.9223 40.4223C60.7169 39.8093 61.2666 38.7484 61.5548 37.2688C61.8229 35.8855 61.7212 34.9203 61.2501 34.3987C60.7699 33.8661 59.7309 33.5961 58.1624 33.5961H55.4428L53.9346 41.3547H56.1454ZM47.2509 50.9115C47.1884 50.9116 47.1267 50.8978 47.0701 50.8712C47.0136 50.8446 46.9636 50.8057 46.9239 50.7575C46.8841 50.7092 46.8556 50.6527 46.8403 50.5921C46.825 50.5315 46.8233 50.4683 46.8354 50.4069L50.831 29.8478C50.8499 29.7515 50.9017 29.6648 50.9775 29.6024C51.0533 29.5401 51.1485 29.506 51.2466 29.506H59.8589C62.5658 29.506 64.5803 30.2409 65.8466 31.6906C67.1196 33.147 67.5127 35.1847 67.0148 37.7447C66.8243 38.7531 66.4748 39.7247 65.9795 40.6234C65.4753 41.5161 64.8318 42.3225 64.0734 43.0122C63.141 43.8848 62.0837 44.5185 60.9369 44.8909C59.8083 45.2589 58.358 45.4454 56.628 45.4454H53.1406L52.1454 50.569C52.1266 50.6656 52.0748 50.7525 51.9989 50.815C51.9229 50.8775 51.8276 50.9116 51.7292 50.9115H47.2509Z" fill="black"/>
<path d="M55.7913 34.0189H58.1624C60.0557 34.0189 60.7132 34.4345 60.9362 34.6826C61.308 35.0933 61.3774 35.9604 61.1392 37.1883C60.871 38.5637 60.375 39.5393 59.6639 40.0865C58.9357 40.6471 57.751 40.9311 56.146 40.9311H54.4482L55.7913 34.0189ZM59.8583 29.083H51.246C51.0497 29.0832 50.8595 29.1515 50.708 29.2763C50.5565 29.4011 50.4531 29.5747 50.4154 29.7673L46.4191 50.327C46.3955 50.4496 46.3992 50.5758 46.4301 50.6967C46.4609 50.8176 46.5181 50.9302 46.5975 51.0264C46.6769 51.1226 46.7766 51.2001 46.8895 51.2534C47.0023 51.3066 47.1255 51.3343 47.2503 51.3343H51.7292C51.9256 51.3341 52.1158 51.2657 52.2673 51.1408C52.4188 51.0159 52.5222 50.8421 52.5598 50.6494L53.4891 45.8682H56.6274C58.4012 45.8682 59.896 45.6745 61.0673 45.293C62.2726 44.9018 63.3811 44.2382 64.3628 43.3198C65.1526 42.6006 65.8228 41.7601 66.3481 40.8299C66.8551 39.9238 67.2183 38.9122 67.4297 37.8251C67.9538 35.1298 67.5285 32.972 66.1647 31.412C64.8143 29.8661 62.6937 29.083 59.8583 29.083ZM53.4214 41.7769H56.1453C57.9511 41.7773 59.2962 41.4371 60.1806 40.7562C61.0642 40.0761 61.6606 38.9405 61.9697 37.3492C62.2667 35.8209 62.1316 34.7427 61.5645 34.1146C60.9974 33.4866 59.8633 33.1725 58.1624 33.1725H55.0942L53.4214 41.7769ZM59.8583 29.9276C62.4493 29.9276 64.339 30.6077 65.5273 31.9678C66.7156 33.3279 67.0729 35.2263 66.5992 37.663C66.4042 38.6673 66.0743 39.585 65.6095 40.4162C65.1448 41.2482 64.537 42.0093 63.7863 42.6995C62.8925 43.5364 61.8989 44.1325 60.8052 44.488C59.7124 44.8439 58.3198 45.0216 56.6274 45.0212H52.7913L51.728 50.4873H47.2491L51.2454 29.9276H59.8583Z" fill="white"/>
<defs>
<radialGradient id="paint0_radial_249_68" cx="0" cy="0" r="1" gradientUnits="userSpaceOnUse" gradientTransform="translate(23.4158 25.6967) scale(51.2127 51.2127)">
<stop stop-color="#AEB2D5"/>
<stop offset="0.3" stop-color="#AEB2D5"/>
<stop offset="0.75" stop-color="#484C89"/>
<stop offset="1" stop-color="#484C89"/>
</radialGradient>
</defs>
</svg>
