<svg width="16" height="16" viewBox="0 0 16 16" fill="none" xmlns="http://www.w3.org/2000/svg">
<g clip-path="url(#clip0_297_23)">
<path d="M14.1397 3.25829C11.521 -0.132713 6.64892 -0.758713 3.25779 1.86041C-0.132832 4.47954 -0.758206 9.35166 1.86092 12.7423C4.48054 16.1328 9.35304 16.7578 12.7432 14.1382C16.1324 11.519 16.7579 6.64841 14.1397 3.25829Z" fill="#F37036"/>
<path d="M11.3847 3.02044C11.1177 3.0418 10.8644 3.14807 10.6621 3.32369C10.4253 3.52933 10.2742 3.81624 10.2386 4.12782C10.2029 4.4394 10.2854 4.75303 10.4696 5.00682C10.6537 5.26065 10.9262 5.4363 11.2334 5.49913C11.5406 5.56195 11.8602 5.50739 12.1291 5.34619H12.1294L12.1489 5.36569C12.2374 5.31494 12.3199 5.25412 12.3945 5.18444C12.6247 4.94094 12.7514 4.61753 12.7477 4.28244C12.7441 3.94735 12.6104 3.62677 12.375 3.38832V3.38807L11.2695 4.48669L11.25 4.46732L12.3555 3.36819C12.2275 3.24483 12.0748 3.15005 11.9074 3.09015C11.7401 3.03024 11.5619 3.00657 11.3847 3.02069V3.02044ZM9.92924 4.81882C9.39924 4.81794 8.53386 5.41869 6.42086 7.53169L6.43136 7.54244C6.41986 7.53844 6.40824 7.53807 6.40824 7.53807L5.61274 8.32657C5.59231 8.346 5.57879 8.37157 5.57423 8.39939C5.56967 8.42722 5.57432 8.45577 5.58749 8.4807C5.60065 8.50563 5.62159 8.52559 5.64713 8.53752C5.67268 8.54946 5.70142 8.55272 5.72899 8.54682L7.09324 8.25582C7.09931 8.2502 7.10335 8.24273 7.10474 8.23457L7.13499 8.26582L6.66999 8.72707H6.64749L3.88674 11.5096L4.77249 12.3626C4.79722 12.385 4.82847 12.3989 4.86167 12.4022C4.89487 12.4056 4.92827 12.3982 4.95699 12.3812C4.98593 12.3644 5.00912 12.3392 5.02351 12.3089C5.03789 12.2787 5.04281 12.2448 5.03761 12.2117L4.90824 11.6492C4.9001 11.6379 4.89572 11.6244 4.89572 11.6104C4.89572 11.5965 4.9001 11.583 4.90824 11.5717C6.11749 10.9952 7.24204 10.2557 8.25049 9.37382L7.68361 8.80669L7.69436 8.80494L7.35811 8.46882L7.37961 8.44707L7.40236 8.47032L7.39061 8.48169L8.28274 9.39332V9.39294C9.99274 7.77369 11.2065 6.47207 10.8909 5.59607C10.8765 5.49131 10.8278 5.39426 10.7525 5.32007V5.32057C10.7333 5.30639 10.7131 5.29361 10.6921 5.28232C10.6817 5.27132 10.6726 5.26007 10.6616 5.24932L10.6534 5.25757C10.6301 5.24353 10.6058 5.23141 10.5806 5.22132L10.6167 5.18482C10.3922 4.98482 10.2067 4.81932 9.92924 4.81857V4.81882ZM3.86749 11.5262L3.22111 12.1727V12.1732C3.19792 12.1876 3.17989 12.2089 3.16962 12.2342C3.15936 12.2595 3.15738 12.2874 3.16399 12.3138C3.17036 12.3403 3.18492 12.3641 3.20559 12.3818C3.22626 12.3995 3.25199 12.4102 3.27911 12.4124L4.86311 12.5218L3.86749 11.5262Z" fill="white"/>
<path d="M11.4937 2.9137C11.1309 2.91329 10.7826 3.05562 10.5238 3.30995C10.3398 3.49834 10.2138 3.73566 10.1608 3.99365C10.1079 4.25163 10.1302 4.51941 10.2251 4.76507C9.63247 4.51132 8.83072 4.95382 6.33684 7.4472C6.33511 7.45103 6.33356 7.45496 6.33222 7.45895C6.32709 7.46119 6.32212 7.46378 6.31734 7.4667L5.52872 8.2622C5.49092 8.2993 5.46609 8.3476 5.45792 8.39993C5.44974 8.45226 5.45866 8.50583 5.48334 8.5527C5.50536 8.58979 5.53656 8.62059 5.57393 8.64214C5.6113 8.66368 5.65359 8.67524 5.69672 8.6757L5.73584 8.65032L6.78884 8.4257L6.28509 8.93407C6.28224 8.94078 6.27999 8.94772 6.27834 8.95482L3.80959 11.4297C3.79976 11.438 3.79161 11.4481 3.78559 11.4594L3.14984 12.0957C3.1182 12.1292 3.09657 12.1708 3.08743 12.216C3.07828 12.2611 3.08197 12.3079 3.09809 12.3511C3.11473 12.3939 3.14286 12.4313 3.17937 12.4592C3.21589 12.4871 3.25939 12.5044 3.30509 12.5092L4.88234 12.6192C4.9093 12.6098 4.93223 12.5915 4.94734 12.5673C4.96083 12.5484 4.96808 12.5258 4.96808 12.5026C4.96808 12.4794 4.96083 12.4568 4.94734 12.4379L4.94409 12.4348C4.97822 12.4171 5.00824 12.3924 5.03222 12.3623C5.05753 12.3294 5.07521 12.2913 5.08398 12.2508C5.09276 12.2102 5.09241 12.1682 5.08297 12.1278L4.95997 11.6044C6.14004 11.0405 7.2457 10.3326 8.25172 9.49682C8.26143 9.50249 8.27185 9.50682 8.28272 9.5097C8.31447 9.50732 8.34422 9.4937 8.36672 9.4712C10.0605 7.86745 11.0561 6.76845 11.0561 5.89595C11.0599 5.77491 11.0416 5.65421 11.0022 5.5397C11.1549 5.60288 11.3177 5.63802 11.4828 5.64345L11.481 5.64395C11.7084 5.63709 11.9308 5.57488 12.1288 5.4627L12.1293 5.46282C12.155 5.47044 12.1826 5.46798 12.2065 5.45595C12.302 5.39967 12.3891 5.33015 12.4652 5.24945C12.5941 5.12298 12.6966 4.97208 12.7665 4.80558C12.8364 4.63907 12.8724 4.46029 12.8725 4.2797C12.8725 4.09911 12.8364 3.92034 12.7665 3.75383C12.6966 3.58733 12.5942 3.43642 12.4653 3.30995C12.4607 3.30579 12.4558 3.30199 12.4506 3.29857C12.1932 3.05156 11.8503 2.91369 11.4936 2.91382L11.4937 2.9137ZM11.4828 3.1352C11.7355 3.13671 11.9806 3.22072 12.1811 3.37445L11.1726 4.38907C11.1692 4.39295 11.166 4.39705 11.1631 4.40132C11.1449 4.41971 11.1343 4.44423 11.1332 4.47007C11.1332 4.48569 11.1367 4.5011 11.1435 4.51517C11.1503 4.52924 11.1601 4.5416 11.1723 4.55132H11.1726L11.9351 5.31382C11.7264 5.40491 11.495 5.43081 11.2714 5.38814C11.0477 5.34547 10.8421 5.23621 10.6816 5.0747C10.3583 4.7497 10.2646 4.2617 10.4375 3.83832C10.6103 3.41457 11.0225 3.1377 11.4828 3.1352ZM12.3728 3.5642C12.5377 3.7637 12.6276 4.01462 12.627 4.27345C12.6265 4.57667 12.5056 4.8673 12.291 5.08145C12.2479 5.12194 12.2021 5.15932 12.1537 5.19332L11.5383 4.58745L11.418 4.46707L11.4511 4.43395L12.3727 3.56395L12.3728 3.5642ZM12.3271 4.08832C12.3045 4.08121 12.28 4.08259 12.2583 4.0922C12.2369 4.10329 12.2207 4.12244 12.2133 4.14545C12.2097 4.15693 12.2084 4.16902 12.2095 4.18101C12.2106 4.193 12.214 4.20466 12.2196 4.21532C12.2418 4.26203 12.2505 4.31399 12.2448 4.36538C12.2391 4.41677 12.2193 4.46557 12.1875 4.50632C12.1793 4.51419 12.1729 4.52369 12.1687 4.53421C12.1645 4.54472 12.1626 4.55601 12.1631 4.56732C12.1636 4.59032 12.1718 4.61232 12.1875 4.62882C12.2041 4.63519 12.2226 4.63519 12.2392 4.62882C12.2542 4.63257 12.27 4.63215 12.2848 4.62759C12.2996 4.62302 12.3129 4.61451 12.3232 4.60295C12.3764 4.53774 12.4101 4.45882 12.4204 4.37528C12.4307 4.29174 12.4172 4.20699 12.3813 4.13082V4.13132C12.3691 4.11084 12.3498 4.09554 12.3271 4.08832ZM9.91747 4.9287C10.0683 4.93384 10.2134 4.9876 10.3312 5.08195C10.2044 5.10024 10.0869 5.15898 9.99609 5.24945L7.14522 8.08757L6.58572 7.52807C8.06422 6.05657 8.96822 5.28795 9.53022 5.03607C9.64602 4.96316 9.78065 4.92591 9.91747 4.9287ZM10.4131 5.2987C10.5088 5.29877 10.6006 5.3367 10.6685 5.4042C10.7045 5.43811 10.7329 5.47928 10.7518 5.52498C10.7708 5.57068 10.7798 5.61988 10.7783 5.66932C10.7767 5.7186 10.7649 5.76701 10.7437 5.81152C10.7226 5.85604 10.6924 5.89572 10.6552 5.92807L7.62397 8.56632L7.29684 8.2392L10.1577 5.4042C10.2256 5.33674 10.3174 5.29874 10.4131 5.2987ZM10.7873 6.13595C10.5761 6.9737 9.45647 8.10882 8.28897 9.21182L7.81684 8.7402L10.7873 6.13595ZM6.42084 7.69332L6.45509 7.72707L6.89422 8.1662L5.69047 8.4237L6.42084 7.69332ZM7.14497 8.42332L7.14547 8.42382L7.29147 8.5732L7.29372 8.5837L7.30347 8.5852L7.33447 8.61695L7.43697 8.72195L6.76384 8.80445L7.14497 8.42332ZM7.62834 8.93282L8.07559 9.37982C7.08662 10.2022 6.00138 10.9013 4.84372 11.4618C4.80613 11.4797 4.77591 11.5101 4.75821 11.5478C4.7405 11.5854 4.73639 11.6281 4.74659 11.6684L4.87597 12.2309C4.88074 12.2376 4.88331 12.2455 4.88331 12.2536C4.88331 12.2618 4.88074 12.2697 4.87597 12.2763C4.86886 12.2827 4.85965 12.2862 4.85009 12.2862C4.84054 12.2862 4.83133 12.2827 4.82422 12.2763L4.06147 11.5073L6.41247 9.12182L7.62834 8.93282ZM3.88672 11.6753L3.99534 11.7771L4.55684 12.3386L3.30484 12.2576L3.88672 11.6753Z" fill="#F37036"/>
</g>
<defs>
<clipPath id="clip0_297_23">
<rect width="16" height="16" fill="white"/>
</clipPath>
</defs>
</svg>
