<svg width="71" height="71" viewBox="0 0 71 71" fill="none" xmlns="http://www.w3.org/2000/svg">
<path d="M27.9729 0C25.2734 0 22.6845 1.0723 20.7757 2.981C18.8669 4.8897 17.7945 7.47846 17.7945 10.1778V16.1563H33.0622C34.4501 16.1563 35.589 18.1848 35.589 19.5726H10.1784C7.47895 19.5726 4.89003 20.6449 2.9812 22.5536C1.07237 24.4623 0 27.0511 0 29.7504V43.2057C0 45.905 1.07237 48.4938 2.9812 50.4025C4.89003 52.3112 7.47895 53.3835 10.1784 53.3835H14.3779V43.8463C14.3733 42.5114 14.6322 41.1887 15.1398 39.9541C15.6474 38.7195 16.3938 37.5972 17.3361 36.6516C18.2784 35.7061 19.3981 34.9558 20.6311 34.4439C21.864 33.932 23.1858 33.6685 24.5208 33.6685H43.205C48.8281 33.6685 53.3835 29.1454 53.3835 23.5227V10.1778C53.3835 7.47846 52.3111 4.8897 50.4023 2.981C48.4934 1.0723 45.9045 0 43.205 0H27.9729ZM25.4105 5.72944C26.8341 5.72944 27.9729 6.15648 27.9729 8.25609C27.9729 10.3557 26.8341 11.4269 25.4105 11.4269C24.0226 11.4269 22.8837 10.3593 22.8837 8.25965C22.8837 6.16004 24.0226 5.72944 25.4105 5.72944Z" fill="#0288D1"/>
<path d="M56.6185 17.6166V27.1551C56.6227 28.4898 56.3635 29.8123 55.8557 31.0467C55.3478 32.281 54.6014 33.403 53.6591 34.3483C52.7168 35.2936 51.5973 36.0437 50.3646 36.5554C49.1319 37.0672 47.8104 37.3306 46.4757 37.3306H27.795C26.4601 37.3259 25.1373 37.5848 23.9026 38.0925C22.6679 38.6002 21.5455 39.3466 20.5999 40.289C19.6543 41.2314 18.904 42.3512 18.392 43.5842C17.8801 44.8172 17.6166 46.1391 17.6166 47.4742V60.8209C17.6166 63.5206 18.6889 66.1097 20.5978 68.0186C22.5066 69.9276 25.0955 71 27.795 71H43.0271C45.726 71 48.3144 69.9281 50.2231 68.0199C52.1318 66.1117 53.2046 63.5235 53.2056 60.8245V54.8451H37.9343C36.5464 54.8451 35.4111 52.8164 35.4111 51.4284H60.8216C63.5211 51.4284 66.11 50.3559 68.0188 48.447C69.9277 46.538 71 43.9489 71 41.2492V27.7957C71 25.096 69.9277 22.5069 68.0188 20.598C66.11 18.689 63.5211 17.6166 60.8216 17.6166H56.6185ZM22.3143 33.6789L22.3001 33.6932L22.4353 33.6789H22.3143ZM45.5895 59.5752C46.9775 59.5752 48.1163 60.643 48.1163 62.7428C48.1163 63.0747 48.051 63.4033 47.924 63.7099C47.797 64.0165 47.6109 64.295 47.3762 64.5297C47.1416 64.7643 46.863 64.9505 46.5565 65.0775C46.2499 65.2045 45.9213 65.2698 45.5895 65.2698C44.1659 65.2698 43.0271 64.8427 43.0271 62.7428C43.0271 60.643 44.1659 59.5752 45.5895 59.5752Z" fill="#FDD835"/>
</svg>
