<svg width="56" height="52" viewBox="0 0 56 52" fill="none" xmlns="http://www.w3.org/2000/svg">
<path d="M27.8872 31.3023C30.692 31.3023 32.9657 28.9284 32.9657 26C32.9657 23.0716 30.692 20.6976 27.8872 20.6976C25.0824 20.6976 22.8087 23.0716 22.8087 26C22.8087 28.9284 25.0824 31.3023 27.8872 31.3023Z" fill="#61DAFB"/>
<path d="M47.1764 17.2558C46.1964 16.8837 45.1718 16.5116 44.1026 16.186C44.3699 15.0698 44.5926 13.9535 44.7708 12.8837C45.7063 6.74419 44.6817 2.4186 41.8307 0.744186C40.9842 0.232558 40.0487 0 38.9796 0C35.8612 0 31.8964 2.4186 27.8871 6.46512C23.8778 2.4186 19.913 0 16.7946 0C15.7255 0 14.79 0.232558 13.9436 0.744186C11.0925 2.46512 10.0679 6.7907 11.0034 12.8837C11.1816 13.9535 11.4043 15.0698 11.6716 16.186C10.6024 16.5116 9.57784 16.8372 8.59778 17.2558C3.02927 19.4884 0 22.5581 0 26C0 29.4419 3.07382 32.5116 8.59778 34.7442C9.57784 35.1163 10.6024 35.4884 11.6716 35.814C11.4043 36.9302 11.1816 38.0465 11.0034 39.1163C10.0679 45.2558 11.0925 49.5814 13.9436 51.2558C14.79 51.7674 15.7255 52 16.7946 52C19.9575 52 23.9223 49.5814 27.8871 45.5349C31.8964 49.5814 35.8612 52 38.9796 52C40.0487 52 40.9842 51.7674 41.8307 51.2558C44.6817 49.5349 45.7063 45.2093 44.7708 39.1163C44.5926 38.0465 44.3699 36.9302 44.1026 35.814C45.1718 35.4884 46.1964 35.1628 47.1764 34.7442C52.7449 32.5116 55.7742 29.4419 55.7742 26C55.7742 22.5581 52.7449 19.4884 47.1764 17.2558ZM40.5833 3.06977C42.4098 4.18605 43.0334 7.62791 42.2761 12.5116C42.1425 13.4884 41.9197 14.5116 41.6525 15.5814C39.336 15.0233 36.8858 14.6512 34.302 14.4186C32.7874 12.186 31.2282 10.186 29.669 8.37209C32.9656 4.97674 36.3067 2.65116 39.0241 2.65116C39.6032 2.65116 40.1378 2.7907 40.5833 3.06977ZM35.5939 30.6512C34.7921 32.1395 33.8565 33.6279 32.8765 35.1163C31.2282 35.2558 29.5799 35.3023 27.8871 35.3023C26.1497 35.3023 24.5014 35.2558 22.8977 35.1163C21.9177 33.6279 21.0267 32.1395 20.2248 30.6512C19.3784 29.1163 18.5765 27.5349 17.8638 26C18.5765 24.4651 19.3784 22.8837 20.2248 21.3488C21.0267 19.8605 21.9622 18.3721 22.9423 16.8837C24.5905 16.7442 26.2388 16.6977 27.9316 16.6977C29.669 16.6977 31.3173 16.7442 32.921 16.8837C33.9011 18.3721 34.7921 19.8605 35.5939 21.3488C36.4403 22.8837 37.2422 24.4651 37.955 26C37.1976 27.5349 36.4403 29.0698 35.5939 30.6512ZM39.2914 29.1163C39.9596 30.7442 40.4942 32.3256 40.9842 33.907C39.4696 34.2791 37.8659 34.5581 36.173 34.7907C36.7076 33.907 37.2867 32.9767 37.7768 32C38.3113 31.0233 38.8014 30.0465 39.2914 29.1163ZM27.8871 41.7209C26.8179 40.5116 25.7933 39.2093 24.8133 37.8605C25.8379 37.907 26.8625 37.9535 27.8871 37.9535C28.9117 37.9535 29.9363 37.907 30.9609 37.8605C29.9809 39.2093 28.9563 40.5116 27.8871 41.7209ZM19.6012 34.7442C17.9083 34.5116 16.3046 34.2326 14.79 33.8605C15.28 32.3256 15.8146 30.6977 16.4828 29.0698C16.9728 30 17.4628 30.9767 17.9974 31.907C18.532 32.9302 19.0666 33.814 19.6012 34.7442ZM16.4828 22.8837C15.8146 21.2558 15.28 19.6744 14.79 18.093C16.3046 17.7209 17.9083 17.4419 19.6012 17.2093C19.0666 18.093 18.4875 19.0233 17.9974 20C17.4628 20.9767 16.9728 21.9535 16.4828 22.8837ZM27.8871 10.2791C28.9563 11.4884 29.9809 12.7907 30.9609 14.1395C29.9363 14.093 28.9117 14.0465 27.8871 14.0465C26.8625 14.0465 25.8379 14.093 24.8133 14.1395C25.7933 12.7907 26.8179 11.4884 27.8871 10.2791ZM37.7768 20.0465L36.173 17.2558C37.8659 17.4884 39.4696 17.7674 40.9842 18.1395C40.4942 19.6744 39.9596 21.3023 39.2914 22.9302C38.8014 21.9535 38.3113 20.9767 37.7768 20.0465ZM13.4981 12.5116C12.7408 7.62791 13.3644 4.18605 15.1909 3.06977C15.6364 2.7907 16.171 2.65116 16.7501 2.65116C19.423 2.65116 22.7641 4.93023 26.1052 8.37209C24.546 10.1395 22.9868 12.186 21.4722 14.4186C18.8884 14.6512 16.4382 15.0698 14.1217 15.5814C13.8545 14.5116 13.6763 13.4884 13.4981 12.5116ZM2.49469 26C2.49469 23.814 5.03393 21.4884 9.48874 19.7674C10.3797 19.3953 11.3598 19.0698 12.3398 18.7907C13.0526 21.1163 13.9435 23.5814 15.0127 26.0465C13.9435 28.5116 13.008 30.9302 12.3398 33.2558C6.19218 31.3953 2.49469 28.6047 2.49469 26ZM15.1909 48.9302C13.3644 47.814 12.7408 44.3721 13.4981 39.4884C13.6317 38.5116 13.8545 37.4884 14.1217 36.4186C16.4382 36.9767 18.8884 37.3488 21.4722 37.5814C22.9868 39.814 24.546 41.814 26.1052 43.6279C22.8086 47.0233 19.4675 49.3488 16.7501 49.3488C16.171 49.3488 15.6364 49.2093 15.1909 48.9302ZM42.2761 39.4884C43.0334 44.3721 42.4098 47.814 40.5833 48.9302C40.1378 49.2093 39.6032 49.3488 39.0241 49.3488C36.3512 49.3488 33.0101 47.0698 29.669 43.6279C31.2282 41.8605 32.7874 39.814 34.302 37.5814C36.8858 37.3488 39.336 36.9302 41.6525 36.4186C41.9197 37.4884 42.0979 38.5116 42.2761 39.4884ZM46.2855 32.2326C45.3945 32.6047 44.4144 32.9302 43.4344 33.2093C42.7216 30.8837 41.8307 28.4186 40.7615 25.9535C41.8307 23.4884 42.7662 21.0698 43.4344 18.7442C49.582 20.6047 53.2795 23.3953 53.2795 26C53.2795 28.186 50.6957 30.5116 46.2855 32.2326Z" fill="#61DAFB"/>
</svg>
