<svg width="60" height="60" viewBox="0 0 60 60" fill="none" xmlns="http://www.w3.org/2000/svg">
<g clip-path="url(#clip0_253_310)">
<mask id="mask0_253_310" style="mask-type:luminance" maskUnits="userSpaceOnUse" x="0" y="0" width="60" height="60">
<path d="M45.9375 0H14.0625C6.296 0 0 6.296 0 14.0625V45.9375C0 53.704 6.296 60 14.0625 60H45.9375C53.704 60 60 53.704 60 45.9375V14.0625C60 6.296 53.704 0 45.9375 0Z" fill="white"/>
</mask>
<g mask="url(#mask0_253_310)">
<path d="M45.9375 0H14.0625C6.296 0 0 6.296 0 14.0625V45.9375C0 53.704 6.296 60 14.0625 60H45.9375C53.704 60 60 53.704 60 45.9375V14.0625C60 6.296 53.704 0 45.9375 0Z" fill="#59B943"/>
<path fill-rule="evenodd" clip-rule="evenodd" d="M54.7913 -1.40625H60V61.1719H59.5158C59.5763 61.1721 59.6363 61.1604 59.6923 61.1374C59.7483 61.1144 59.7992 61.0805 59.8421 61.0377C59.8849 60.995 59.9189 60.9442 59.9421 60.8882C59.9652 60.8323 59.9771 60.7723 59.977 60.7118V7.90687C60.0135 7.79937 60.0058 7.68177 59.9556 7.57994C59.9054 7.4781 59.8169 7.40037 59.7094 7.36383C59.6018 7.32733 59.4841 7.33493 59.3822 7.38496C59.2802 7.43499 59.2021 7.52337 59.1652 7.63078L39.788 29.3306C39.7326 29.3904 39.6655 29.438 39.5909 29.4706C39.5163 29.5032 39.4357 29.52 39.3543 29.52C39.2728 29.52 39.1923 29.5032 39.1176 29.4706C39.043 29.438 38.9759 29.3904 38.9205 29.3306L29.029 19.1524C28.9453 19.048 28.8997 18.9182 28.8997 18.7845C28.8997 18.6507 28.9453 18.5209 29.029 18.4165L32.2952 14.2383C32.35 14.1622 32.4221 14.1003 32.5056 14.0576C32.589 14.0149 32.6814 13.9926 32.7751 13.9926C32.8688 13.9926 32.9612 14.0149 33.0447 14.0576C33.1281 14.1003 33.2002 14.1622 33.255 14.2383L38.7914 20.3489C38.8469 20.4147 38.9162 20.4676 38.9943 20.5039C39.0723 20.5402 39.1574 20.559 39.2435 20.559C39.3296 20.559 39.4147 20.5402 39.4928 20.5039C39.5709 20.4676 39.6401 20.4147 39.6956 20.3489L55.1236 -0.743672C55.1665 -0.806016 55.1918 -0.878672 55.1972 -0.954141C55.2022 -1.02959 55.187 -1.105 55.1531 -1.17258C55.1191 -1.24016 55.0678 -1.29745 55.0043 -1.33852C54.9407 -1.37984 54.8671 -1.40324 54.7913 -1.40625ZM0.46125 -1.40625H0V-0.946172C0 -1.06805 0.0485156 -1.18523 0.135234 -1.27148C0.221719 -1.35773 0.339141 -1.40625 0.46125 -1.40625ZM0 60.7118V61.1719H0.46125C0.339024 61.1719 0.221785 61.1234 0.135234 61.0371C0.0923957 60.9944 0.0583984 60.9438 0.035192 60.8879C0.0119855 60.8321 2.62978e-05 60.7723 0 60.7118ZM39.6019 38.2125C38.4574 38.1774 37.3412 38.5722 36.4732 39.319C35.6081 40.0629 35.0558 41.1059 34.9266 42.2395C34.921 42.2615 34.9206 42.2844 34.9254 42.3066C34.9301 42.3287 34.9399 42.3495 34.954 42.3673C34.9683 42.3849 34.9865 42.3991 35.0072 42.4086C35.0279 42.418 35.0505 42.4226 35.0733 42.4219H44.149C44.1699 42.4219 44.1905 42.4175 44.2096 42.4091C44.2287 42.4006 44.2458 42.3883 44.2598 42.3729C44.2738 42.3575 44.2843 42.3392 44.2905 42.3193C44.2967 42.2994 44.2985 42.2785 44.2957 42.2578C44.2056 41.1036 43.6625 40.0319 42.7849 39.2768C41.9042 38.5189 40.7613 38.1368 39.6019 38.2125ZM6.1268 50.6257C9.04568 53.182 12.8447 54.5022 16.7198 54.3068H16.7011C23.6955 54.3068 27.0727 50.7361 27.0727 46.061C27.0727 40.1977 21.6166 38.8915 17.3133 37.8612C14.5116 37.1902 12.1985 36.6366 12.1985 35.018C12.1985 33.4718 13.5272 32.4227 15.8892 32.4227C18.4597 32.3984 20.9609 33.2559 22.9758 34.8523C23.0353 34.9031 23.1047 34.9413 23.1795 34.9642C23.2544 34.9872 23.3332 34.9946 23.411 34.9859C23.4888 34.9771 23.564 34.9526 23.6319 34.9138C23.6999 34.875 23.7592 34.8227 23.8062 34.7602L26.0761 31.613C26.1787 31.5068 26.236 31.3649 26.236 31.2172C26.236 31.0696 26.1787 30.9277 26.0761 30.8215C23.3435 28.6075 19.9022 27.4569 16.3875 27.5822C10.2607 27.5822 6.56977 31.1529 6.56977 35.4412C6.56977 41.2073 11.8195 42.4507 16.0891 43.4618C19.0153 44.1548 21.4809 44.7387 21.4809 46.5949C21.4809 48.0673 20.0046 49.466 16.9781 49.466C14.106 49.4752 11.3368 48.3967 9.22734 46.4475C9.12917 46.3876 9.01522 46.3587 8.90036 46.3645C8.78551 46.3704 8.67509 46.4107 8.58352 46.4803C8.52296 46.5266 8.472 46.5842 8.43352 46.65L6.1268 49.871C6.0347 49.9751 5.98385 50.1093 5.98385 50.2484C5.98385 50.3874 6.0347 50.5216 6.1268 50.6257ZM49.2026 45.5435C49.2277 45.4798 49.2391 45.4116 49.2366 45.3434L49.218 44.7544C49.218 38.478 45.3241 34.1897 39.5848 34.1897C38.2605 34.1667 36.9453 34.4117 35.7183 34.9102C34.4921 35.408 33.3795 36.1492 32.4476 37.0889C31.5165 38.0277 30.7856 39.1456 30.2991 40.3751C29.813 41.6037 29.5818 42.9183 29.6194 44.239C29.5661 45.5921 29.7967 46.9415 30.2963 48.2002C30.7968 49.4595 31.5549 50.6004 32.5221 51.5496C33.4906 52.4995 34.6466 53.2369 35.9163 53.7145C37.1869 54.1924 38.5432 54.4003 39.8986 54.3251C42.6113 54.3939 45.2708 53.5658 47.4649 51.9691C47.5646 51.8897 47.6312 51.7759 47.6517 51.6501C47.6721 51.5242 47.645 51.3952 47.5755 51.2883L45.9148 48.877C45.8567 48.788 45.7717 48.7198 45.6723 48.6825C45.5728 48.6451 45.464 48.6404 45.3616 48.6691C45.2937 48.6881 45.2306 48.7214 45.1765 48.7666C43.7899 49.739 42.1454 50.2772 40.4522 50.3128C39.1619 50.4192 37.8783 50.0401 36.8529 49.2497C35.829 48.4605 35.1378 47.3163 34.9158 46.0427C34.9132 46.0209 34.9149 45.9988 34.921 45.9777C34.9271 45.9566 34.9374 45.937 34.9512 45.9199C34.9648 45.9027 34.9818 45.8885 35.0011 45.878C35.0204 45.8674 35.0416 45.8609 35.0634 45.8587H48.7198C48.7884 45.8613 48.8566 45.8496 48.9206 45.8248C48.9845 45.7999 49.0425 45.762 49.091 45.7136C49.1395 45.6652 49.1775 45.6073 49.2026 45.5435Z" fill="white"/>
</g>
</g>
<defs>
<clipPath id="clip0_253_310">
<rect width="60" height="60" fill="white"/>
</clipPath>
</defs>
</svg>
