<svg width="74" height="46" viewBox="0 0 74 46" fill="none" xmlns="http://www.w3.org/2000/svg">
<path d="M37 0C27.1331 0 20.9686 5.10938 18.5 15.3323C22.1988 10.2224 26.5169 8.30619 31.4488 9.58383C34.2649 10.311 36.2773 12.4266 38.506 14.7711C42.1332 18.5848 46.3315 23 55.5 23C65.3663 23 71.5314 17.89 74 7.66467C70.3 12.7772 65.9835 14.6944 61.0506 13.4162C58.2351 12.6884 56.225 10.5734 53.9934 8.22892C50.3686 4.41515 46.1714 0 37 0ZM18.5 23C8.63372 23 2.46859 28.11 0 38.3353C3.69961 33.2228 8.0159 31.3056 12.9488 32.5838C15.7649 33.3116 17.7773 35.4266 20.006 37.7711C23.6332 41.5849 27.8315 46 37 46C46.8663 46 53.0314 40.8906 55.5 30.6677C51.8 35.7778 47.4835 37.694 42.5506 36.4162C39.7351 35.689 37.725 33.5734 35.4934 31.2289C31.8686 27.4152 27.6714 23 18.5 23Z" fill="#38BDF8"/>
</svg>
