<svg width="64" height="65" viewBox="0 0 64 65" fill="none" xmlns="http://www.w3.org/2000/svg">
<path d="M0 32.5V65H64V0H0V32.5ZM51.5738 29.9C53.1066 30.2613 54.4998 31.0755 55.5776 32.24C56.1709 32.8674 56.6867 33.5659 57.1136 34.32C57.1136 34.4032 54.3488 36.3012 52.6643 37.362C52.6029 37.4036 52.3571 37.1332 52.0858 36.7224C51.7783 36.1835 51.3413 35.7325 50.8158 35.4115C50.2902 35.0905 49.6932 34.91 49.0803 34.8868C47.1398 34.7516 45.8906 35.7864 45.9008 37.4868C45.8853 37.9101 45.9807 38.33 46.1773 38.7036C46.6022 39.6032 47.3958 40.1388 49.8842 41.2308C54.4666 43.2328 56.4275 44.5536 57.6461 46.4308C59.008 48.5108 59.3101 51.87 58.3885 54.3556C57.3645 57.0596 54.8557 58.8952 51.3075 59.5036C49.687 59.6922 48.0496 59.6748 46.4333 59.4516C43.956 59.0369 41.6742 57.8289 39.9206 56.004C39.3318 55.3436 38.185 53.6224 38.2566 53.4976C38.4432 53.3561 38.64 53.2292 38.8454 53.118L41.216 51.7868L43.0541 50.7052L43.4381 51.2824C44.0863 52.2237 44.911 53.026 45.865 53.6432C47.913 54.7352 50.7085 54.5844 52.0909 53.3208C52.555 52.8578 52.8446 52.2441 52.9091 51.5866C52.9737 50.9291 52.8091 50.2694 52.4442 49.7224C51.9322 48.9996 50.9082 48.3912 48.0461 47.1224C44.7437 45.6768 43.3203 44.7824 42.0198 43.3576C41.2083 42.4172 40.6089 41.308 40.2637 40.1076C40.0064 38.7361 39.9684 37.3314 40.151 35.9476C40.832 32.708 43.223 30.446 46.7149 29.7752C48.332 29.5723 49.97 29.6179 51.5738 29.9104V29.9ZM36.5517 32.6248V35.2872H28.2419V59.3268H22.3488V35.282H14.0186V32.682C13.9924 31.7854 14.0129 30.888 14.08 29.9936C14.121 29.9468 19.2 29.9468 25.344 29.9468H36.521L36.5517 32.6248Z" fill="#007ACC"/>
</svg>
